<svg width="410" height="43" viewBox="0 0 410 43" fill="none" xmlns="http://www.w3.org/2000/svg">
<rect y="21.3601" width="21.36" height="21.36" transform="rotate(-90 0 21.3601)" fill="#397C5B"/>
<rect y="21.3601" width="21.36" height="21.36" transform="rotate(-90 0 21.3601)" fill="#282202"/>
<rect x="21.3604" y="42.72" width="21.36" height="21.36" transform="rotate(-90 21.3604 42.72)" fill="#397C5B"/>
<rect x="21.3604" y="42.72" width="21.36" height="21.36" transform="rotate(-90 21.3604 42.72)" fill="#282202"/>
<rect x="42.7212" y="21.3604" width="21.36" height="21.36" transform="rotate(-90 42.7212 21.3604)" fill="#397C5B"/>
<rect x="42.7212" y="21.3604" width="21.36" height="21.36" transform="rotate(-90 42.7212 21.3604)" fill="#282202"/>
<rect x="64.0798" y="42.72" width="21.36" height="21.36" transform="rotate(-90 64.0798 42.72)" fill="#397C5B"/>
<rect x="64.0798" y="42.72" width="21.36" height="21.36" transform="rotate(-90 64.0798 42.72)" fill="#282202"/>
<rect x="85.4407" y="21.3604" width="21.36" height="21.36" transform="rotate(-90 85.4407 21.3604)" fill="#397C5B"/>
<rect x="85.4407" y="21.3604" width="21.36" height="21.36" transform="rotate(-90 85.4407 21.3604)" fill="#282202"/>
<rect x="106.799" y="42.72" width="21.36" height="21.36" transform="rotate(-90 106.799 42.72)" fill="#397C5B"/>
<rect x="106.799" y="42.72" width="21.36" height="21.36" transform="rotate(-90 106.799 42.72)" fill="#282202"/>
<rect x="128.16" y="21.3604" width="21.36" height="21.36" transform="rotate(-90 128.16 21.3604)" fill="#397C5B"/>
<rect x="128.16" y="21.3604" width="21.36" height="21.36" transform="rotate(-90 128.16 21.3604)" fill="#282202"/>
<rect x="149.521" y="42.72" width="21.36" height="21.36" transform="rotate(-90 149.521 42.72)" fill="#397C5B"/>
<rect x="149.521" y="42.72" width="21.36" height="21.36" transform="rotate(-90 149.521 42.72)" fill="#282202"/>
<rect x="170.882" y="21.3601" width="21.36" height="21.36" transform="rotate(-90 170.882 21.3601)" fill="#397C5B"/>
<rect x="170.882" y="21.3601" width="21.36" height="21.36" transform="rotate(-90 170.882 21.3601)" fill="#282202"/>
<rect x="192.24" y="42.72" width="21.36" height="21.36" transform="rotate(-90 192.24 42.72)" fill="#397C5B"/>
<rect x="192.24" y="42.72" width="21.36" height="21.36" transform="rotate(-90 192.24 42.72)" fill="#282202"/>
<rect x="213.601" y="21.3601" width="21.36" height="21.36" transform="rotate(-90 213.601 21.3601)" fill="#397C5B"/>
<rect x="213.601" y="21.3601" width="21.36" height="21.36" transform="rotate(-90 213.601 21.3601)" fill="#282202"/>
<rect x="234.96" y="42.72" width="21.36" height="21.36" transform="rotate(-90 234.96 42.72)" fill="#397C5B"/>
<rect x="234.96" y="42.72" width="21.36" height="21.36" transform="rotate(-90 234.96 42.72)" fill="#282202"/>
<rect x="256.321" y="21.3601" width="21.36" height="21.36" transform="rotate(-90 256.321 21.3601)" fill="#397C5B"/>
<rect x="256.321" y="21.3601" width="21.36" height="21.36" transform="rotate(-90 256.321 21.3601)" fill="#282202"/>
<rect x="277.679" y="42.72" width="21.36" height="21.36" transform="rotate(-90 277.679 42.72)" fill="#397C5B"/>
<rect x="277.679" y="42.72" width="21.36" height="21.36" transform="rotate(-90 277.679 42.72)" fill="#282202"/>
<rect x="299.04" y="21.3601" width="21.36" height="21.36" transform="rotate(-90 299.04 21.3601)" fill="#397C5B"/>
<rect x="299.04" y="21.3601" width="21.36" height="21.36" transform="rotate(-90 299.04 21.3601)" fill="#282202"/>
<rect x="320.399" y="42.72" width="21.36" height="21.36" transform="rotate(-90 320.399 42.72)" fill="#397C5B"/>
<rect x="320.399" y="42.72" width="21.36" height="21.36" transform="rotate(-90 320.399 42.72)" fill="#282202"/>
<rect x="341.76" y="21.3601" width="21.36" height="21.36" transform="rotate(-90 341.76 21.3601)" fill="#397C5B"/>
<rect x="341.76" y="21.3601" width="21.36" height="21.36" transform="rotate(-90 341.76 21.3601)" fill="#282202"/>
<rect x="363.118" y="42.72" width="21.36" height="21.36" transform="rotate(-90 363.118 42.72)" fill="#397C5B"/>
<rect x="363.118" y="42.72" width="21.36" height="21.36" transform="rotate(-90 363.118 42.72)" fill="#282202"/>
<rect x="384" y="21.0002" width="21" height="26" transform="rotate(-90 384 21.0002)" fill="#397C5B"/>
<rect x="384" y="21.0002" width="21" height="26" transform="rotate(-90 384 21.0002)" fill="#282202"/>
</svg>
