<svg width="840" height="56" viewBox="0 0 840 56" fill="none" xmlns="http://www.w3.org/2000/svg">
<rect x="840" width="28" height="28" transform="rotate(90 840 0)" fill="#397C5B"/>
<rect x="840" width="28" height="28" transform="rotate(90 840 0)" fill="#397C5B"/>
<rect x="812" y="28" width="28" height="28" transform="rotate(90 812 28)" fill="#397C5B"/>
<rect x="812" y="28" width="28" height="28" transform="rotate(90 812 28)" fill="#397C5B"/>
<rect x="784" width="28" height="28" transform="rotate(90 784 0)" fill="#397C5B"/>
<rect x="784" width="28" height="28" transform="rotate(90 784 0)" fill="#397C5B"/>
<rect x="756" y="28" width="28" height="28" transform="rotate(90 756 28)" fill="#397C5B"/>
<rect x="756" y="28" width="28" height="28" transform="rotate(90 756 28)" fill="#397C5B"/>
<rect x="728" width="28" height="28" transform="rotate(90 728 0)" fill="#397C5B"/>
<rect x="728" width="28" height="28" transform="rotate(90 728 0)" fill="#397C5B"/>
<rect x="700" y="28" width="28" height="28" transform="rotate(90 700 28)" fill="#397C5B"/>
<rect x="700" y="28" width="28" height="28" transform="rotate(90 700 28)" fill="#397C5B"/>
<rect x="672" width="28" height="28" transform="rotate(90 672 0)" fill="#397C5B"/>
<rect x="672" width="28" height="28" transform="rotate(90 672 0)" fill="#397C5B"/>
<rect x="644" y="28" width="28" height="28" transform="rotate(90 644 28)" fill="#397C5B"/>
<rect x="644" y="28" width="28" height="28" transform="rotate(90 644 28)" fill="#397C5B"/>
<rect x="616" width="28" height="28" transform="rotate(90 616 0)" fill="#397C5B"/>
<rect x="616" width="28" height="28" transform="rotate(90 616 0)" fill="#397C5B"/>
<rect x="588" y="28" width="28" height="28" transform="rotate(90 588 28)" fill="#397C5B"/>
<rect x="588" y="28" width="28" height="28" transform="rotate(90 588 28)" fill="#397C5B"/>
<rect x="560" width="28" height="28" transform="rotate(90 560 0)" fill="#397C5B"/>
<rect x="560" width="28" height="28" transform="rotate(90 560 0)" fill="#397C5B"/>
<rect x="532" y="28" width="28" height="28" transform="rotate(90 532 28)" fill="#397C5B"/>
<rect x="532" y="28" width="28" height="28" transform="rotate(90 532 28)" fill="#397C5B"/>
<rect x="504" width="28" height="28" transform="rotate(90 504 0)" fill="#397C5B"/>
<rect x="504" width="28" height="28" transform="rotate(90 504 0)" fill="#397C5B"/>
<rect x="476" y="28" width="28" height="28" transform="rotate(90 476 28)" fill="#397C5B"/>
<rect x="476" y="28" width="28" height="28" transform="rotate(90 476 28)" fill="#397C5B"/>
<rect x="448" width="28" height="28" transform="rotate(90 448 0)" fill="#397C5B"/>
<rect x="448" width="28" height="28" transform="rotate(90 448 0)" fill="#397C5B"/>
<rect x="420" y="28" width="28" height="28" transform="rotate(90 420 28)" fill="#397C5B"/>
<rect x="420" y="28" width="28" height="28" transform="rotate(90 420 28)" fill="#397C5B"/>
<rect x="392" width="28" height="28" transform="rotate(90 392 0)" fill="#397C5B"/>
<rect x="392" width="28" height="28" transform="rotate(90 392 0)" fill="#397C5B"/>
<rect x="364" y="28" width="28" height="28" transform="rotate(90 364 28)" fill="#397C5B"/>
<rect x="364" y="28" width="28" height="28" transform="rotate(90 364 28)" fill="#397C5B"/>
<rect x="336" width="28" height="28" transform="rotate(90 336 0)" fill="#397C5B"/>
<rect x="336" width="28" height="28" transform="rotate(90 336 0)" fill="#397C5B"/>
<rect x="308" y="28" width="28" height="28" transform="rotate(90 308 28)" fill="#397C5B"/>
<rect x="308" y="28" width="28" height="28" transform="rotate(90 308 28)" fill="#397C5B"/>
<rect x="280" width="28" height="28" transform="rotate(90 280 0)" fill="#397C5B"/>
<rect x="280" width="28" height="28" transform="rotate(90 280 0)" fill="#397C5B"/>
<rect x="252" y="28" width="28" height="28" transform="rotate(90 252 28)" fill="#397C5B"/>
<rect x="252" y="28" width="28" height="28" transform="rotate(90 252 28)" fill="#397C5B"/>
<rect x="224" width="28" height="28" transform="rotate(90 224 0)" fill="#397C5B"/>
<rect x="224" width="28" height="28" transform="rotate(90 224 0)" fill="#397C5B"/>
<rect x="196" y="28" width="28" height="28" transform="rotate(90 196 28)" fill="#397C5B"/>
<rect x="196" y="28" width="28" height="28" transform="rotate(90 196 28)" fill="#397C5B"/>
<rect x="168" width="28" height="28" transform="rotate(90 168 0)" fill="#397C5B"/>
<rect x="168" width="28" height="28" transform="rotate(90 168 0)" fill="#397C5B"/>
<rect x="140" y="28" width="28" height="28" transform="rotate(90 140 28)" fill="#397C5B"/>
<rect x="140" y="28" width="28" height="28" transform="rotate(90 140 28)" fill="#397C5B"/>
<rect x="112" width="28" height="28" transform="rotate(90 112 0)" fill="#397C5B"/>
<rect x="112" width="28" height="28" transform="rotate(90 112 0)" fill="#397C5B"/>
<rect x="84" y="28" width="28" height="28" transform="rotate(90 84 28)" fill="#397C5B"/>
<rect x="84" y="28" width="28" height="28" transform="rotate(90 84 28)" fill="#397C5B"/>
<rect x="56" width="28" height="28" transform="rotate(90 56 0)" fill="#397C5B"/>
<rect x="56" width="28" height="28" transform="rotate(90 56 0)" fill="#397C5B"/>
<rect x="28" y="28" width="28" height="28" transform="rotate(90 28 28)" fill="#397C5B"/>
<rect x="28" y="28" width="28" height="28" transform="rotate(90 28 28)" fill="#397C5B"/>
</svg>
