<svg width="195" height="99" viewBox="0 0 195 99" fill="none" xmlns="http://www.w3.org/2000/svg">
<mask id="path-1-outside-1_42_54" maskUnits="userSpaceOnUse" x="57" y="33" width="138" height="28" fill="black">
<rect fill="white" x="57" y="33" width="138" height="28"/>
<path d="M73.9903 53.695H64.6278L62.8047 60H58.3228L66.6598 33.7926H72.1292L80.4852 60H75.8134L73.9903 53.695ZM65.5394 50.2957H73.0597L69.3185 37.211L65.5394 50.2957ZM101.531 41.37C101.531 42.6614 101.265 43.7881 100.734 44.7503C100.214 45.6999 99.4992 46.4912 98.5876 47.1242C97.6887 47.7572 96.6822 48.2447 95.5681 48.5865L102.993 60H97.866L91.2761 49.2132H88.4085V60H84.0026V33.7926H91.3141C94.6818 33.7926 97.2266 34.4257 98.9484 35.6917C100.67 36.9451 101.531 38.8379 101.531 41.37ZM96.9164 41.37C96.9164 39.8507 96.4733 38.7556 95.5871 38.0846C94.7135 37.4009 93.3715 37.059 91.561 37.059H88.4085V45.9848H91.6559C93.3398 45.9848 94.6375 45.6303 95.5491 44.9213C96.4606 44.1996 96.9164 43.0158 96.9164 41.37ZM111.278 60H106.872V33.7926H111.278V60ZM111.468 46.0037L120.583 33.7926H125.426L116.253 45.6999L126.147 60H120.868L111.468 46.0037ZM142.313 53.695H132.95L131.127 60H126.645L134.982 33.7926H140.452L148.808 60H144.136L142.313 53.695ZM133.862 50.2957H141.382L137.641 37.211L133.862 50.2957ZM156.37 56.3538H169.626L169.132 60H151.338V56.5816L164.669 37.3629H152.705V33.7926H169.531V37.249L156.37 56.3538ZM192.21 33.7926L193.691 60H189.665L189.039 47.2381C189.001 46.2759 188.969 45.3454 188.944 44.4465C188.931 43.5476 188.925 42.6867 188.925 41.8637C188.925 41.0408 188.931 40.2812 188.944 39.5848C188.969 38.8758 188.994 38.2365 189.02 37.6668L185.165 55.3852H181.328L177.188 37.6668C177.226 38.2112 177.258 38.8505 177.283 39.5848C177.309 40.3065 177.328 41.0851 177.34 41.9207C177.353 42.7563 177.353 43.6299 177.34 44.5414C177.34 45.453 177.328 46.3646 177.302 47.2761L176.79 60H172.839L174.321 33.7926H179.6L183.341 51.3592L186.912 33.7926H192.21Z"/>
</mask>
<path d="M73.9903 53.695H64.6278L62.8047 60H58.3228L66.6598 33.7926H72.1292L80.4852 60H75.8134L73.9903 53.695ZM65.5394 50.2957H73.0597L69.3185 37.211L65.5394 50.2957ZM101.531 41.37C101.531 42.6614 101.265 43.7881 100.734 44.7503C100.214 45.6999 99.4992 46.4912 98.5876 47.1242C97.6887 47.7572 96.6822 48.2447 95.5681 48.5865L102.993 60H97.866L91.2761 49.2132H88.4085V60H84.0026V33.7926H91.3141C94.6818 33.7926 97.2266 34.4257 98.9484 35.6917C100.67 36.9451 101.531 38.8379 101.531 41.37ZM96.9164 41.37C96.9164 39.8507 96.4733 38.7556 95.5871 38.0846C94.7135 37.4009 93.3715 37.059 91.561 37.059H88.4085V45.9848H91.6559C93.3398 45.9848 94.6375 45.6303 95.5491 44.9213C96.4606 44.1996 96.9164 43.0158 96.9164 41.37ZM111.278 60H106.872V33.7926H111.278V60ZM111.468 46.0037L120.583 33.7926H125.426L116.253 45.6999L126.147 60H120.868L111.468 46.0037ZM142.313 53.695H132.95L131.127 60H126.645L134.982 33.7926H140.452L148.808 60H144.136L142.313 53.695ZM133.862 50.2957H141.382L137.641 37.211L133.862 50.2957ZM156.37 56.3538H169.626L169.132 60H151.338V56.5816L164.669 37.3629H152.705V33.7926H169.531V37.249L156.37 56.3538ZM192.21 33.7926L193.691 60H189.665L189.039 47.2381C189.001 46.2759 188.969 45.3454 188.944 44.4465C188.931 43.5476 188.925 42.6867 188.925 41.8637C188.925 41.0408 188.931 40.2812 188.944 39.5848C188.969 38.8758 188.994 38.2365 189.02 37.6668L185.165 55.3852H181.328L177.188 37.6668C177.226 38.2112 177.258 38.8505 177.283 39.5848C177.309 40.3065 177.328 41.0851 177.34 41.9207C177.353 42.7563 177.353 43.6299 177.34 44.5414C177.34 45.453 177.328 46.3646 177.302 47.2761L176.79 60H172.839L174.321 33.7926H179.6L183.341 51.3592L186.912 33.7926H192.21Z" fill="#D64334"/>
<path d="M73.9903 53.695L74.6837 53.4945L74.533 52.9732H73.9903V53.695ZM64.6278 53.695V52.9732H64.0851L63.9344 53.4945L64.6278 53.695ZM62.8047 60V60.7218H63.3474L63.4981 60.2005L62.8047 60ZM58.3228 60L57.635 59.7812L57.3357 60.7218H58.3228V60ZM66.6598 33.7926V33.0708H66.132L65.972 33.5738L66.6598 33.7926ZM72.1292 33.7926L72.8169 33.5733L72.6567 33.0708H72.1292V33.7926ZM80.4852 60V60.7218H81.473L81.1729 59.7807L80.4852 60ZM75.8134 60L75.12 60.2005L75.2707 60.7218H75.8134V60ZM65.5394 50.2957L64.8459 50.0954L64.5796 51.0175H65.5394V50.2957ZM73.0597 50.2957V51.0175H74.0169L73.7538 50.0972L73.0597 50.2957ZM69.3185 37.211L70.0126 37.0125L69.3221 34.5975L68.6251 37.0107L69.3185 37.211ZM73.9903 52.9732H64.6278V54.4169H73.9903V52.9732ZM63.9344 53.4945L62.1113 59.7995L63.4981 60.2005L65.3212 53.8955L63.9344 53.4945ZM62.8047 59.2782H58.3228V60.7218H62.8047V59.2782ZM59.0107 60.2188L67.3477 34.0114L65.972 33.5738L57.635 59.7812L59.0107 60.2188ZM66.6598 34.5145H72.1292V33.0708H66.6598V34.5145ZM71.4415 34.0119L79.7974 60.2193L81.1729 59.7807L72.8169 33.5733L71.4415 34.0119ZM80.4852 59.2782H75.8134V60.7218H80.4852V59.2782ZM76.5068 59.7995L74.6837 53.4945L73.2969 53.8955L75.12 60.2005L76.5068 59.7995ZM65.5394 51.0175H73.0597V49.5738H65.5394V51.0175ZM73.7538 50.0972L70.0126 37.0125L68.6245 37.4094L72.3657 50.4941L73.7538 50.0972ZM68.6251 37.0107L64.8459 50.0954L66.2329 50.496L70.012 37.4113L68.6251 37.0107ZM100.734 44.7503L100.102 44.4012L100.1 44.4041L100.734 44.7503ZM98.5876 47.1242L98.1759 46.5313L98.172 46.534L98.5876 47.1242ZM95.5681 48.5865L95.3563 47.8964L94.4407 48.1773L94.963 48.9801L95.5681 48.5865ZM102.993 60V60.7218H104.324L103.599 59.6064L102.993 60ZM97.866 60L97.25 60.3763L97.4611 60.7218H97.866V60ZM91.2761 49.2132L91.8921 48.8369L91.681 48.4914H91.2761V49.2132ZM88.4085 49.2132V48.4914H87.6867V49.2132H88.4085ZM88.4085 60V60.7218H89.1303V60H88.4085ZM84.0026 60H83.2808V60.7218H84.0026V60ZM84.0026 33.7926V33.0708H83.2808V33.7926H84.0026ZM98.9484 35.6917L98.5208 36.2733L98.5236 36.2753L98.9484 35.6917ZM95.5871 38.0846L95.1421 38.6531L95.1513 38.66L95.5871 38.0846ZM88.4085 37.059V36.3372H87.6867V37.059H88.4085ZM88.4085 45.9848H87.6867V46.7066H88.4085V45.9848ZM95.5491 44.9213L95.9922 45.4911L95.9971 45.4872L95.5491 44.9213ZM100.809 41.37C100.809 42.5606 100.565 43.5632 100.102 44.4012L101.365 45.0995C101.966 44.0131 102.253 42.7621 102.253 41.37H100.809ZM100.1 44.4041C99.6363 45.2528 98.9979 45.9605 98.1759 46.5313L98.9993 47.7171C100 47.0218 100.793 46.147 101.367 45.0966L100.1 44.4041ZM98.172 46.534C97.339 47.1206 96.402 47.5756 95.3563 47.8964L95.7798 49.2766C96.9623 48.9137 98.0384 48.3938 99.0032 47.7144L98.172 46.534ZM94.963 48.9801L102.388 60.3936L103.599 59.6064L96.1731 48.1929L94.963 48.9801ZM102.993 59.2782H97.866V60.7218H102.993V59.2782ZM98.4819 59.6237L91.8921 48.8369L90.6602 49.5895L97.25 60.3763L98.4819 59.6237ZM91.2761 48.4914H88.4085V49.935H91.2761V48.4914ZM87.6867 49.2132V60H89.1303V49.2132H87.6867ZM88.4085 59.2782H84.0026V60.7218H88.4085V59.2782ZM84.7245 60V33.7926H83.2808V60H84.7245ZM84.0026 34.5145H91.3141V33.0708H84.0026V34.5145ZM91.3141 34.5145C94.6103 34.5145 96.976 35.1373 98.5208 36.2733L99.376 35.1102C97.4772 33.714 94.7533 33.0708 91.3141 33.0708V34.5145ZM98.5236 36.2753C100.022 37.3661 100.809 39.0192 100.809 41.37H102.253C102.253 38.6565 101.318 36.5241 99.3732 35.1081L98.5236 36.2753ZM97.6382 41.37C97.6382 39.7136 97.15 38.3625 96.0228 37.5091L95.1513 38.66C95.7966 39.1486 96.1946 39.9878 96.1946 41.37H97.6382ZM96.0319 37.5161C94.9731 36.6875 93.4386 36.3372 91.561 36.3372V37.7809C93.3043 37.7809 94.4538 38.1143 95.1422 38.653L96.0319 37.5161ZM91.561 36.3372H88.4085V37.7809H91.561V36.3372ZM87.6867 37.059V45.9848H89.1303V37.059H87.6867ZM88.4085 46.7066H91.6559V45.2629H88.4085V46.7066ZM91.6559 46.7066C93.4293 46.7066 94.9075 46.3347 95.9922 45.491L95.1059 44.3515C94.3675 44.9258 93.2503 45.2629 91.6559 45.2629V46.7066ZM95.9971 45.4872C97.1452 44.5783 97.6382 43.1401 97.6382 41.37H96.1946C96.1946 42.8916 95.7761 43.8209 95.101 44.3553L95.9971 45.4872ZM111.278 60V60.7218H111.999V60H111.278ZM106.872 60H106.15V60.7218H106.872V60ZM106.872 33.7926V33.0708H106.15V33.7926H106.872ZM111.278 33.7926H111.999V33.0708H111.278V33.7926ZM111.468 46.0037L110.889 45.5719L110.583 45.9817L110.868 46.4062L111.468 46.0037ZM120.583 33.7926V33.0708H120.221L120.005 33.3608L120.583 33.7926ZM125.426 33.7926L125.998 34.2331L126.893 33.0708H125.426V33.7926ZM116.253 45.6999L115.681 45.2594L115.36 45.677L115.66 46.1106L116.253 45.6999ZM126.147 60V60.7218H127.525L126.741 59.5893L126.147 60ZM120.868 60L120.269 60.4025L120.483 60.7218H120.868V60ZM111.278 59.2782H106.872V60.7218H111.278V59.2782ZM107.594 60V33.7926H106.15V60H107.594ZM106.872 34.5145H111.278V33.0708H106.872V34.5145ZM110.556 33.7926V60H111.999V33.7926H110.556ZM112.046 46.4355L121.162 34.2244L120.005 33.3608L110.889 45.5719L112.046 46.4355ZM120.583 34.5145H125.426V33.0708H120.583V34.5145ZM124.854 33.3521L115.681 45.2594L116.825 46.1404L125.998 34.2331L124.854 33.3521ZM115.66 46.1106L125.554 60.4107L126.741 59.5893L116.847 45.2892L115.66 46.1106ZM126.147 59.2782H120.868V60.7218H126.147V59.2782ZM121.467 59.5975L112.067 45.6013L110.868 46.4062L120.269 60.4025L121.467 59.5975ZM142.313 53.695L143.006 53.4945L142.856 52.9732H142.313V53.695ZM132.95 53.695V52.9732H132.408L132.257 53.4945L132.95 53.695ZM131.127 60V60.7218H131.67L131.821 60.2005L131.127 60ZM126.645 60L125.958 59.7812L125.658 60.7218H126.645V60ZM134.982 33.7926V33.0708H134.455L134.295 33.5738L134.982 33.7926ZM140.452 33.7926L141.139 33.5733L140.979 33.0708H140.452V33.7926ZM148.808 60V60.7218H149.796L149.495 59.7807L148.808 60ZM144.136 60L143.443 60.2005L143.593 60.7218H144.136V60ZM133.862 50.2957L133.168 50.0954L132.902 51.0175H133.862V50.2957ZM141.382 50.2957V51.0175H142.339L142.076 50.0972L141.382 50.2957ZM137.641 37.211L138.335 37.0125L137.645 34.5975L136.948 37.0107L137.641 37.211ZM142.313 52.9732H132.95V54.4169H142.313V52.9732ZM132.257 53.4945L130.434 59.7995L131.821 60.2005L133.644 53.8955L132.257 53.4945ZM131.127 59.2782H126.645V60.7218H131.127V59.2782ZM127.333 60.2188L135.67 34.0114L134.295 33.5738L125.958 59.7812L127.333 60.2188ZM134.982 34.5145H140.452V33.0708H134.982V34.5145ZM139.764 34.0119L148.12 60.2193L149.495 59.7807L141.139 33.5733L139.764 34.0119ZM148.808 59.2782H144.136V60.7218H148.808V59.2782ZM144.829 59.7995L143.006 53.4945L141.619 53.8955L143.443 60.2005L144.829 59.7995ZM133.862 51.0175H141.382V49.5738H133.862V51.0175ZM142.076 50.0972L138.335 37.0125L136.947 37.4094L140.688 50.4941L142.076 50.0972ZM136.948 37.0107L133.168 50.0954L134.555 50.496L138.335 37.4113L136.948 37.0107ZM156.37 56.3538L155.776 55.9443L154.996 57.0756H156.37V56.3538ZM169.626 56.3538L170.341 56.4506L170.452 55.6319H169.626V56.3538ZM169.132 60V60.7218H169.763L169.847 60.0969L169.132 60ZM151.338 60H150.616V60.7218H151.338V60ZM151.338 56.5816L150.745 56.1702L150.616 56.3558V56.5816H151.338ZM164.669 37.3629L165.262 37.7743L166.048 36.6411H164.669V37.3629ZM152.705 37.3629H151.983V38.0847H152.705V37.3629ZM152.705 33.7926V33.0708H151.983V33.7926H152.705ZM169.531 33.7926H170.253V33.0708H169.531V33.7926ZM169.531 37.249L170.125 37.6584L170.253 37.4735V37.249H169.531ZM156.37 57.0756H169.626V55.6319H156.37V57.0756ZM168.911 56.2569L168.417 59.9031L169.847 60.0969L170.341 56.4506L168.911 56.2569ZM169.132 59.2782H151.338V60.7218H169.132V59.2782ZM152.06 60V56.5816H150.616V60H152.06ZM151.931 56.9931L165.262 37.7743L164.076 36.9515L150.745 56.1702L151.931 56.9931ZM164.669 36.6411H152.705V38.0847H164.669V36.6411ZM153.427 37.3629V33.7926H151.983V37.3629H153.427ZM152.705 34.5145H169.531V33.0708H152.705V34.5145ZM168.809 33.7926V37.249H170.253V33.7926H168.809ZM168.936 36.8395L155.776 55.9443L156.965 56.7632L170.125 37.6584L168.936 36.8395ZM192.21 33.7926L192.931 33.7519L192.892 33.0708H192.21V33.7926ZM193.691 60V60.7218H194.455L194.412 59.9593L193.691 60ZM189.665 60L188.944 60.0354L188.978 60.7218H189.665V60ZM189.039 47.2381L188.317 47.2666L188.318 47.2736L189.039 47.2381ZM188.944 44.4465L188.222 44.4567L188.222 44.4668L188.944 44.4465ZM188.944 39.5848L188.222 39.5591L188.222 39.5717L188.944 39.5848ZM189.02 37.6668L189.741 37.6988L188.314 37.5133L189.02 37.6668ZM185.165 55.3852V56.1071H185.746L185.87 55.5387L185.165 55.3852ZM181.328 55.3852L180.625 55.5495L180.756 56.1071H181.328V55.3852ZM177.188 37.6668L177.891 37.5025L176.468 37.717L177.188 37.6668ZM177.283 39.5848L176.562 39.6097L176.562 39.6101L177.283 39.5848ZM177.34 41.9207L178.062 41.9098L178.062 41.9098L177.34 41.9207ZM177.34 44.5414L176.618 44.5314V44.5414H177.34ZM177.302 47.2761L178.024 47.3052L178.024 47.2962L177.302 47.2761ZM176.79 60V60.7218H177.483L177.511 60.0291L176.79 60ZM172.839 60L172.119 59.9593L172.076 60.7218H172.839V60ZM174.321 33.7926V33.0708H173.639L173.6 33.7519L174.321 33.7926ZM179.6 33.7926L180.306 33.6423L180.184 33.0708H179.6V33.7926ZM183.341 51.3592L182.635 51.5095L184.049 51.5029L183.341 51.3592ZM186.912 33.7926V33.0708H186.322L186.204 33.6489L186.912 33.7926ZM191.489 33.8334L192.971 60.0407L194.412 59.9593L192.931 33.7519L191.489 33.8334ZM193.691 59.2782H189.665V60.7218H193.691V59.2782ZM190.386 59.9646L189.76 47.2027L188.318 47.2736L188.944 60.0354L190.386 59.9646ZM189.76 47.2097C189.722 46.25 189.69 45.3222 189.665 44.4262L188.222 44.4668C188.248 45.3686 188.279 46.3019 188.317 47.2666L189.76 47.2097ZM189.665 44.4363C189.653 43.5405 189.647 42.683 189.647 41.8637H188.203C188.203 42.6904 188.209 43.5547 188.222 44.4567L189.665 44.4363ZM189.647 41.8637C189.647 41.0444 189.653 40.2892 189.665 39.598L188.222 39.5717C188.209 40.2731 188.203 41.0372 188.203 41.8637H189.647ZM189.665 39.6106C189.69 38.9032 189.716 38.266 189.741 37.6988L188.299 37.6347C188.273 38.207 188.248 38.8485 188.222 39.5591L189.665 39.6106ZM188.314 37.5133L184.459 55.2318L185.87 55.5387L189.725 37.8202L188.314 37.5133ZM185.165 54.6634H181.328V56.1071H185.165V54.6634ZM182.031 55.221L177.891 37.5025L176.485 37.831L180.625 55.5495L182.031 55.221ZM176.468 37.717C176.506 38.2506 176.537 38.8812 176.562 39.6097L178.005 39.56C177.979 38.8199 177.947 38.1717 177.908 37.6165L176.468 37.717ZM176.562 39.6101C176.587 40.3263 176.606 41.1001 176.619 41.9316L178.062 41.9098C178.049 41.0701 178.03 40.2866 178.005 39.5595L176.562 39.6101ZM176.619 41.9316C176.631 42.7597 176.631 43.6262 176.619 44.5314L178.062 44.5515C178.075 43.6335 178.075 42.753 178.062 41.9098L176.619 41.9316ZM176.618 44.5414C176.618 45.4463 176.606 46.3512 176.581 47.2561L178.024 47.2962C178.049 46.3779 178.062 45.4597 178.062 44.5414H176.618ZM176.581 47.2471L176.068 59.9709L177.511 60.0291L178.024 47.3052L176.581 47.2471ZM176.79 59.2782H172.839V60.7218H176.79V59.2782ZM173.56 60.0407L175.041 33.8334L173.6 33.7519L172.119 59.9593L173.56 60.0407ZM174.321 34.5145H179.6V33.0708H174.321V34.5145ZM178.894 33.943L182.635 51.5095L184.047 51.2088L180.306 33.6423L178.894 33.943ZM184.049 51.5029L187.619 33.9364L186.204 33.6489L182.634 51.2154L184.049 51.5029ZM186.912 34.5145H192.21V33.0708H186.912V34.5145Z" fill="#D64334" mask="url(#path-1-outside-1_42_54)"/>
<path d="M73.9903 53.695L74.6837 53.4945L74.533 52.9732H73.9903V53.695ZM64.6278 53.695V52.9732H64.0851L63.9344 53.4945L64.6278 53.695ZM62.8047 60V60.7218H63.3474L63.4981 60.2005L62.8047 60ZM58.3228 60L57.635 59.7812L57.3357 60.7218H58.3228V60ZM66.6598 33.7926V33.0708H66.132L65.972 33.5738L66.6598 33.7926ZM72.1292 33.7926L72.8169 33.5733L72.6567 33.0708H72.1292V33.7926ZM80.4852 60V60.7218H81.473L81.1729 59.7807L80.4852 60ZM75.8134 60L75.12 60.2005L75.2707 60.7218H75.8134V60ZM65.5394 50.2957L64.8459 50.0954L64.5796 51.0175H65.5394V50.2957ZM73.0597 50.2957V51.0175H74.0169L73.7538 50.0972L73.0597 50.2957ZM69.3185 37.211L70.0126 37.0125L69.3221 34.5975L68.6251 37.0107L69.3185 37.211ZM73.9903 52.9732H64.6278V54.4169H73.9903V52.9732ZM63.9344 53.4945L62.1113 59.7995L63.4981 60.2005L65.3212 53.8955L63.9344 53.4945ZM62.8047 59.2782H58.3228V60.7218H62.8047V59.2782ZM59.0107 60.2188L67.3477 34.0114L65.972 33.5738L57.635 59.7812L59.0107 60.2188ZM66.6598 34.5145H72.1292V33.0708H66.6598V34.5145ZM71.4415 34.0119L79.7974 60.2193L81.1729 59.7807L72.8169 33.5733L71.4415 34.0119ZM80.4852 59.2782H75.8134V60.7218H80.4852V59.2782ZM76.5068 59.7995L74.6837 53.4945L73.2969 53.8955L75.12 60.2005L76.5068 59.7995ZM65.5394 51.0175H73.0597V49.5738H65.5394V51.0175ZM73.7538 50.0972L70.0126 37.0125L68.6245 37.4094L72.3657 50.4941L73.7538 50.0972ZM68.6251 37.0107L64.8459 50.0954L66.2329 50.496L70.012 37.4113L68.6251 37.0107ZM100.734 44.7503L100.102 44.4012L100.1 44.4041L100.734 44.7503ZM98.5876 47.1242L98.1759 46.5313L98.172 46.534L98.5876 47.1242ZM95.5681 48.5865L95.3563 47.8964L94.4407 48.1773L94.963 48.9801L95.5681 48.5865ZM102.993 60V60.7218H104.324L103.599 59.6064L102.993 60ZM97.866 60L97.25 60.3763L97.4611 60.7218H97.866V60ZM91.2761 49.2132L91.8921 48.8369L91.681 48.4914H91.2761V49.2132ZM88.4085 49.2132V48.4914H87.6867V49.2132H88.4085ZM88.4085 60V60.7218H89.1303V60H88.4085ZM84.0026 60H83.2808V60.7218H84.0026V60ZM84.0026 33.7926V33.0708H83.2808V33.7926H84.0026ZM98.9484 35.6917L98.5208 36.2733L98.5236 36.2753L98.9484 35.6917ZM95.5871 38.0846L95.1421 38.6531L95.1513 38.66L95.5871 38.0846ZM88.4085 37.059V36.3372H87.6867V37.059H88.4085ZM88.4085 45.9848H87.6867V46.7066H88.4085V45.9848ZM95.5491 44.9213L95.9922 45.4911L95.9971 45.4872L95.5491 44.9213ZM100.809 41.37C100.809 42.5606 100.565 43.5632 100.102 44.4012L101.365 45.0995C101.966 44.0131 102.253 42.7621 102.253 41.37H100.809ZM100.1 44.4041C99.6363 45.2528 98.9979 45.9605 98.1759 46.5313L98.9993 47.7171C100 47.0218 100.793 46.147 101.367 45.0966L100.1 44.4041ZM98.172 46.534C97.339 47.1206 96.402 47.5756 95.3563 47.8964L95.7798 49.2766C96.9623 48.9137 98.0384 48.3938 99.0032 47.7144L98.172 46.534ZM94.963 48.9801L102.388 60.3936L103.599 59.6064L96.1731 48.1929L94.963 48.9801ZM102.993 59.2782H97.866V60.7218H102.993V59.2782ZM98.4819 59.6237L91.8921 48.8369L90.6602 49.5895L97.25 60.3763L98.4819 59.6237ZM91.2761 48.4914H88.4085V49.935H91.2761V48.4914ZM87.6867 49.2132V60H89.1303V49.2132H87.6867ZM88.4085 59.2782H84.0026V60.7218H88.4085V59.2782ZM84.7245 60V33.7926H83.2808V60H84.7245ZM84.0026 34.5145H91.3141V33.0708H84.0026V34.5145ZM91.3141 34.5145C94.6103 34.5145 96.976 35.1373 98.5208 36.2733L99.376 35.1102C97.4772 33.714 94.7533 33.0708 91.3141 33.0708V34.5145ZM98.5236 36.2753C100.022 37.3661 100.809 39.0192 100.809 41.37H102.253C102.253 38.6565 101.318 36.5241 99.3732 35.1081L98.5236 36.2753ZM97.6382 41.37C97.6382 39.7136 97.15 38.3625 96.0228 37.5091L95.1513 38.66C95.7966 39.1486 96.1946 39.9878 96.1946 41.37H97.6382ZM96.0319 37.5161C94.9731 36.6875 93.4386 36.3372 91.561 36.3372V37.7809C93.3043 37.7809 94.4538 38.1143 95.1422 38.653L96.0319 37.5161ZM91.561 36.3372H88.4085V37.7809H91.561V36.3372ZM87.6867 37.059V45.9848H89.1303V37.059H87.6867ZM88.4085 46.7066H91.6559V45.2629H88.4085V46.7066ZM91.6559 46.7066C93.4293 46.7066 94.9075 46.3347 95.9922 45.491L95.1059 44.3515C94.3675 44.9258 93.2503 45.2629 91.6559 45.2629V46.7066ZM95.9971 45.4872C97.1452 44.5783 97.6382 43.1401 97.6382 41.37H96.1946C96.1946 42.8916 95.7761 43.8209 95.101 44.3553L95.9971 45.4872ZM111.278 60V60.7218H111.999V60H111.278ZM106.872 60H106.15V60.7218H106.872V60ZM106.872 33.7926V33.0708H106.15V33.7926H106.872ZM111.278 33.7926H111.999V33.0708H111.278V33.7926ZM111.468 46.0037L110.889 45.5719L110.583 45.9817L110.868 46.4062L111.468 46.0037ZM120.583 33.7926V33.0708H120.221L120.005 33.3608L120.583 33.7926ZM125.426 33.7926L125.998 34.2331L126.893 33.0708H125.426V33.7926ZM116.253 45.6999L115.681 45.2594L115.36 45.677L115.66 46.1106L116.253 45.6999ZM126.147 60V60.7218H127.525L126.741 59.5893L126.147 60ZM120.868 60L120.269 60.4025L120.483 60.7218H120.868V60ZM111.278 59.2782H106.872V60.7218H111.278V59.2782ZM107.594 60V33.7926H106.15V60H107.594ZM106.872 34.5145H111.278V33.0708H106.872V34.5145ZM110.556 33.7926V60H111.999V33.7926H110.556ZM112.046 46.4355L121.162 34.2244L120.005 33.3608L110.889 45.5719L112.046 46.4355ZM120.583 34.5145H125.426V33.0708H120.583V34.5145ZM124.854 33.3521L115.681 45.2594L116.825 46.1404L125.998 34.2331L124.854 33.3521ZM115.66 46.1106L125.554 60.4107L126.741 59.5893L116.847 45.2892L115.66 46.1106ZM126.147 59.2782H120.868V60.7218H126.147V59.2782ZM121.467 59.5975L112.067 45.6013L110.868 46.4062L120.269 60.4025L121.467 59.5975ZM142.313 53.695L143.006 53.4945L142.856 52.9732H142.313V53.695ZM132.95 53.695V52.9732H132.408L132.257 53.4945L132.95 53.695ZM131.127 60V60.7218H131.67L131.821 60.2005L131.127 60ZM126.645 60L125.958 59.7812L125.658 60.7218H126.645V60ZM134.982 33.7926V33.0708H134.455L134.295 33.5738L134.982 33.7926ZM140.452 33.7926L141.139 33.5733L140.979 33.0708H140.452V33.7926ZM148.808 60V60.7218H149.796L149.495 59.7807L148.808 60ZM144.136 60L143.443 60.2005L143.593 60.7218H144.136V60ZM133.862 50.2957L133.168 50.0954L132.902 51.0175H133.862V50.2957ZM141.382 50.2957V51.0175H142.339L142.076 50.0972L141.382 50.2957ZM137.641 37.211L138.335 37.0125L137.645 34.5975L136.948 37.0107L137.641 37.211ZM142.313 52.9732H132.95V54.4169H142.313V52.9732ZM132.257 53.4945L130.434 59.7995L131.821 60.2005L133.644 53.8955L132.257 53.4945ZM131.127 59.2782H126.645V60.7218H131.127V59.2782ZM127.333 60.2188L135.67 34.0114L134.295 33.5738L125.958 59.7812L127.333 60.2188ZM134.982 34.5145H140.452V33.0708H134.982V34.5145ZM139.764 34.0119L148.12 60.2193L149.495 59.7807L141.139 33.5733L139.764 34.0119ZM148.808 59.2782H144.136V60.7218H148.808V59.2782ZM144.829 59.7995L143.006 53.4945L141.619 53.8955L143.443 60.2005L144.829 59.7995ZM133.862 51.0175H141.382V49.5738H133.862V51.0175ZM142.076 50.0972L138.335 37.0125L136.947 37.4094L140.688 50.4941L142.076 50.0972ZM136.948 37.0107L133.168 50.0954L134.555 50.496L138.335 37.4113L136.948 37.0107ZM156.37 56.3538L155.776 55.9443L154.996 57.0756H156.37V56.3538ZM169.626 56.3538L170.341 56.4506L170.452 55.6319H169.626V56.3538ZM169.132 60V60.7218H169.763L169.847 60.0969L169.132 60ZM151.338 60H150.616V60.7218H151.338V60ZM151.338 56.5816L150.745 56.1702L150.616 56.3558V56.5816H151.338ZM164.669 37.3629L165.262 37.7743L166.048 36.6411H164.669V37.3629ZM152.705 37.3629H151.983V38.0847H152.705V37.3629ZM152.705 33.7926V33.0708H151.983V33.7926H152.705ZM169.531 33.7926H170.253V33.0708H169.531V33.7926ZM169.531 37.249L170.125 37.6584L170.253 37.4735V37.249H169.531ZM156.37 57.0756H169.626V55.6319H156.37V57.0756ZM168.911 56.2569L168.417 59.9031L169.847 60.0969L170.341 56.4506L168.911 56.2569ZM169.132 59.2782H151.338V60.7218H169.132V59.2782ZM152.06 60V56.5816H150.616V60H152.06ZM151.931 56.9931L165.262 37.7743L164.076 36.9515L150.745 56.1702L151.931 56.9931ZM164.669 36.6411H152.705V38.0847H164.669V36.6411ZM153.427 37.3629V33.7926H151.983V37.3629H153.427ZM152.705 34.5145H169.531V33.0708H152.705V34.5145ZM168.809 33.7926V37.249H170.253V33.7926H168.809ZM168.936 36.8395L155.776 55.9443L156.965 56.7632L170.125 37.6584L168.936 36.8395ZM192.21 33.7926L192.931 33.7519L192.892 33.0708H192.21V33.7926ZM193.691 60V60.7218H194.455L194.412 59.9593L193.691 60ZM189.665 60L188.944 60.0354L188.978 60.7218H189.665V60ZM189.039 47.2381L188.317 47.2666L188.318 47.2736L189.039 47.2381ZM188.944 44.4465L188.222 44.4567L188.222 44.4668L188.944 44.4465ZM188.944 39.5848L188.222 39.5591L188.222 39.5717L188.944 39.5848ZM189.02 37.6668L189.741 37.6988L188.314 37.5133L189.02 37.6668ZM185.165 55.3852V56.1071H185.746L185.87 55.5387L185.165 55.3852ZM181.328 55.3852L180.625 55.5495L180.756 56.1071H181.328V55.3852ZM177.188 37.6668L177.891 37.5025L176.468 37.717L177.188 37.6668ZM177.283 39.5848L176.562 39.6097L176.562 39.6101L177.283 39.5848ZM177.34 41.9207L178.062 41.9098L178.062 41.9098L177.34 41.9207ZM177.34 44.5414L176.618 44.5314V44.5414H177.34ZM177.302 47.2761L178.024 47.3052L178.024 47.2962L177.302 47.2761ZM176.79 60V60.7218H177.483L177.511 60.0291L176.79 60ZM172.839 60L172.119 59.9593L172.076 60.7218H172.839V60ZM174.321 33.7926V33.0708H173.639L173.6 33.7519L174.321 33.7926ZM179.6 33.7926L180.306 33.6423L180.184 33.0708H179.6V33.7926ZM183.341 51.3592L182.635 51.5095L184.049 51.5029L183.341 51.3592ZM186.912 33.7926V33.0708H186.322L186.204 33.6489L186.912 33.7926ZM191.489 33.8334L192.971 60.0407L194.412 59.9593L192.931 33.7519L191.489 33.8334ZM193.691 59.2782H189.665V60.7218H193.691V59.2782ZM190.386 59.9646L189.76 47.2027L188.318 47.2736L188.944 60.0354L190.386 59.9646ZM189.76 47.2097C189.722 46.25 189.69 45.3222 189.665 44.4262L188.222 44.4668C188.248 45.3686 188.279 46.3019 188.317 47.2666L189.76 47.2097ZM189.665 44.4363C189.653 43.5405 189.647 42.683 189.647 41.8637H188.203C188.203 42.6904 188.209 43.5547 188.222 44.4567L189.665 44.4363ZM189.647 41.8637C189.647 41.0444 189.653 40.2892 189.665 39.598L188.222 39.5717C188.209 40.2731 188.203 41.0372 188.203 41.8637H189.647ZM189.665 39.6106C189.69 38.9032 189.716 38.266 189.741 37.6988L188.299 37.6347C188.273 38.207 188.248 38.8485 188.222 39.5591L189.665 39.6106ZM188.314 37.5133L184.459 55.2318L185.87 55.5387L189.725 37.8202L188.314 37.5133ZM185.165 54.6634H181.328V56.1071H185.165V54.6634ZM182.031 55.221L177.891 37.5025L176.485 37.831L180.625 55.5495L182.031 55.221ZM176.468 37.717C176.506 38.2506 176.537 38.8812 176.562 39.6097L178.005 39.56C177.979 38.8199 177.947 38.1717 177.908 37.6165L176.468 37.717ZM176.562 39.6101C176.587 40.3263 176.606 41.1001 176.619 41.9316L178.062 41.9098C178.049 41.0701 178.03 40.2866 178.005 39.5595L176.562 39.6101ZM176.619 41.9316C176.631 42.7597 176.631 43.6262 176.619 44.5314L178.062 44.5515C178.075 43.6335 178.075 42.753 178.062 41.9098L176.619 41.9316ZM176.618 44.5414C176.618 45.4463 176.606 46.3512 176.581 47.2561L178.024 47.2962C178.049 46.3779 178.062 45.4597 178.062 44.5414H176.618ZM176.581 47.2471L176.068 59.9709L177.511 60.0291L178.024 47.3052L176.581 47.2471ZM176.79 59.2782H172.839V60.7218H176.79V59.2782ZM173.56 60.0407L175.041 33.8334L173.6 33.7519L172.119 59.9593L173.56 60.0407ZM174.321 34.5145H179.6V33.0708H174.321V34.5145ZM178.894 33.943L182.635 51.5095L184.047 51.2088L180.306 33.6423L178.894 33.943ZM184.049 51.5029L187.619 33.9364L186.204 33.6489L182.634 51.2154L184.049 51.5029ZM186.912 34.5145H192.21V33.0708H186.912V34.5145Z" fill="#D64334" mask="url(#path-1-outside-1_42_54)"/>
<path d="M73.9903 53.695L74.6837 53.4945L74.533 52.9732H73.9903V53.695ZM64.6278 53.695V52.9732H64.0851L63.9344 53.4945L64.6278 53.695ZM62.8047 60V60.7218H63.3474L63.4981 60.2005L62.8047 60ZM58.3228 60L57.635 59.7812L57.3357 60.7218H58.3228V60ZM66.6598 33.7926V33.0708H66.132L65.972 33.5738L66.6598 33.7926ZM72.1292 33.7926L72.8169 33.5733L72.6567 33.0708H72.1292V33.7926ZM80.4852 60V60.7218H81.473L81.1729 59.7807L80.4852 60ZM75.8134 60L75.12 60.2005L75.2707 60.7218H75.8134V60ZM65.5394 50.2957L64.8459 50.0954L64.5796 51.0175H65.5394V50.2957ZM73.0597 50.2957V51.0175H74.0169L73.7538 50.0972L73.0597 50.2957ZM69.3185 37.211L70.0126 37.0125L69.3221 34.5975L68.6251 37.0107L69.3185 37.211ZM73.9903 52.9732H64.6278V54.4169H73.9903V52.9732ZM63.9344 53.4945L62.1113 59.7995L63.4981 60.2005L65.3212 53.8955L63.9344 53.4945ZM62.8047 59.2782H58.3228V60.7218H62.8047V59.2782ZM59.0107 60.2188L67.3477 34.0114L65.972 33.5738L57.635 59.7812L59.0107 60.2188ZM66.6598 34.5145H72.1292V33.0708H66.6598V34.5145ZM71.4415 34.0119L79.7974 60.2193L81.1729 59.7807L72.8169 33.5733L71.4415 34.0119ZM80.4852 59.2782H75.8134V60.7218H80.4852V59.2782ZM76.5068 59.7995L74.6837 53.4945L73.2969 53.8955L75.12 60.2005L76.5068 59.7995ZM65.5394 51.0175H73.0597V49.5738H65.5394V51.0175ZM73.7538 50.0972L70.0126 37.0125L68.6245 37.4094L72.3657 50.4941L73.7538 50.0972ZM68.6251 37.0107L64.8459 50.0954L66.2329 50.496L70.012 37.4113L68.6251 37.0107ZM100.734 44.7503L100.102 44.4012L100.1 44.4041L100.734 44.7503ZM98.5876 47.1242L98.1759 46.5313L98.172 46.534L98.5876 47.1242ZM95.5681 48.5865L95.3563 47.8964L94.4407 48.1773L94.963 48.9801L95.5681 48.5865ZM102.993 60V60.7218H104.324L103.599 59.6064L102.993 60ZM97.866 60L97.25 60.3763L97.4611 60.7218H97.866V60ZM91.2761 49.2132L91.8921 48.8369L91.681 48.4914H91.2761V49.2132ZM88.4085 49.2132V48.4914H87.6867V49.2132H88.4085ZM88.4085 60V60.7218H89.1303V60H88.4085ZM84.0026 60H83.2808V60.7218H84.0026V60ZM84.0026 33.7926V33.0708H83.2808V33.7926H84.0026ZM98.9484 35.6917L98.5208 36.2733L98.5236 36.2753L98.9484 35.6917ZM95.5871 38.0846L95.1421 38.6531L95.1513 38.66L95.5871 38.0846ZM88.4085 37.059V36.3372H87.6867V37.059H88.4085ZM88.4085 45.9848H87.6867V46.7066H88.4085V45.9848ZM95.5491 44.9213L95.9922 45.4911L95.9971 45.4872L95.5491 44.9213ZM100.809 41.37C100.809 42.5606 100.565 43.5632 100.102 44.4012L101.365 45.0995C101.966 44.0131 102.253 42.7621 102.253 41.37H100.809ZM100.1 44.4041C99.6363 45.2528 98.9979 45.9605 98.1759 46.5313L98.9993 47.7171C100 47.0218 100.793 46.147 101.367 45.0966L100.1 44.4041ZM98.172 46.534C97.339 47.1206 96.402 47.5756 95.3563 47.8964L95.7798 49.2766C96.9623 48.9137 98.0384 48.3938 99.0032 47.7144L98.172 46.534ZM94.963 48.9801L102.388 60.3936L103.599 59.6064L96.1731 48.1929L94.963 48.9801ZM102.993 59.2782H97.866V60.7218H102.993V59.2782ZM98.4819 59.6237L91.8921 48.8369L90.6602 49.5895L97.25 60.3763L98.4819 59.6237ZM91.2761 48.4914H88.4085V49.935H91.2761V48.4914ZM87.6867 49.2132V60H89.1303V49.2132H87.6867ZM88.4085 59.2782H84.0026V60.7218H88.4085V59.2782ZM84.7245 60V33.7926H83.2808V60H84.7245ZM84.0026 34.5145H91.3141V33.0708H84.0026V34.5145ZM91.3141 34.5145C94.6103 34.5145 96.976 35.1373 98.5208 36.2733L99.376 35.1102C97.4772 33.714 94.7533 33.0708 91.3141 33.0708V34.5145ZM98.5236 36.2753C100.022 37.3661 100.809 39.0192 100.809 41.37H102.253C102.253 38.6565 101.318 36.5241 99.3732 35.1081L98.5236 36.2753ZM97.6382 41.37C97.6382 39.7136 97.15 38.3625 96.0228 37.5091L95.1513 38.66C95.7966 39.1486 96.1946 39.9878 96.1946 41.37H97.6382ZM96.0319 37.5161C94.9731 36.6875 93.4386 36.3372 91.561 36.3372V37.7809C93.3043 37.7809 94.4538 38.1143 95.1422 38.653L96.0319 37.5161ZM91.561 36.3372H88.4085V37.7809H91.561V36.3372ZM87.6867 37.059V45.9848H89.1303V37.059H87.6867ZM88.4085 46.7066H91.6559V45.2629H88.4085V46.7066ZM91.6559 46.7066C93.4293 46.7066 94.9075 46.3347 95.9922 45.491L95.1059 44.3515C94.3675 44.9258 93.2503 45.2629 91.6559 45.2629V46.7066ZM95.9971 45.4872C97.1452 44.5783 97.6382 43.1401 97.6382 41.37H96.1946C96.1946 42.8916 95.7761 43.8209 95.101 44.3553L95.9971 45.4872ZM111.278 60V60.7218H111.999V60H111.278ZM106.872 60H106.15V60.7218H106.872V60ZM106.872 33.7926V33.0708H106.15V33.7926H106.872ZM111.278 33.7926H111.999V33.0708H111.278V33.7926ZM111.468 46.0037L110.889 45.5719L110.583 45.9817L110.868 46.4062L111.468 46.0037ZM120.583 33.7926V33.0708H120.221L120.005 33.3608L120.583 33.7926ZM125.426 33.7926L125.998 34.2331L126.893 33.0708H125.426V33.7926ZM116.253 45.6999L115.681 45.2594L115.36 45.677L115.66 46.1106L116.253 45.6999ZM126.147 60V60.7218H127.525L126.741 59.5893L126.147 60ZM120.868 60L120.269 60.4025L120.483 60.7218H120.868V60ZM111.278 59.2782H106.872V60.7218H111.278V59.2782ZM107.594 60V33.7926H106.15V60H107.594ZM106.872 34.5145H111.278V33.0708H106.872V34.5145ZM110.556 33.7926V60H111.999V33.7926H110.556ZM112.046 46.4355L121.162 34.2244L120.005 33.3608L110.889 45.5719L112.046 46.4355ZM120.583 34.5145H125.426V33.0708H120.583V34.5145ZM124.854 33.3521L115.681 45.2594L116.825 46.1404L125.998 34.2331L124.854 33.3521ZM115.66 46.1106L125.554 60.4107L126.741 59.5893L116.847 45.2892L115.66 46.1106ZM126.147 59.2782H120.868V60.7218H126.147V59.2782ZM121.467 59.5975L112.067 45.6013L110.868 46.4062L120.269 60.4025L121.467 59.5975ZM142.313 53.695L143.006 53.4945L142.856 52.9732H142.313V53.695ZM132.95 53.695V52.9732H132.408L132.257 53.4945L132.95 53.695ZM131.127 60V60.7218H131.67L131.821 60.2005L131.127 60ZM126.645 60L125.958 59.7812L125.658 60.7218H126.645V60ZM134.982 33.7926V33.0708H134.455L134.295 33.5738L134.982 33.7926ZM140.452 33.7926L141.139 33.5733L140.979 33.0708H140.452V33.7926ZM148.808 60V60.7218H149.796L149.495 59.7807L148.808 60ZM144.136 60L143.443 60.2005L143.593 60.7218H144.136V60ZM133.862 50.2957L133.168 50.0954L132.902 51.0175H133.862V50.2957ZM141.382 50.2957V51.0175H142.339L142.076 50.0972L141.382 50.2957ZM137.641 37.211L138.335 37.0125L137.645 34.5975L136.948 37.0107L137.641 37.211ZM142.313 52.9732H132.95V54.4169H142.313V52.9732ZM132.257 53.4945L130.434 59.7995L131.821 60.2005L133.644 53.8955L132.257 53.4945ZM131.127 59.2782H126.645V60.7218H131.127V59.2782ZM127.333 60.2188L135.67 34.0114L134.295 33.5738L125.958 59.7812L127.333 60.2188ZM134.982 34.5145H140.452V33.0708H134.982V34.5145ZM139.764 34.0119L148.12 60.2193L149.495 59.7807L141.139 33.5733L139.764 34.0119ZM148.808 59.2782H144.136V60.7218H148.808V59.2782ZM144.829 59.7995L143.006 53.4945L141.619 53.8955L143.443 60.2005L144.829 59.7995ZM133.862 51.0175H141.382V49.5738H133.862V51.0175ZM142.076 50.0972L138.335 37.0125L136.947 37.4094L140.688 50.4941L142.076 50.0972ZM136.948 37.0107L133.168 50.0954L134.555 50.496L138.335 37.4113L136.948 37.0107ZM156.37 56.3538L155.776 55.9443L154.996 57.0756H156.37V56.3538ZM169.626 56.3538L170.341 56.4506L170.452 55.6319H169.626V56.3538ZM169.132 60V60.7218H169.763L169.847 60.0969L169.132 60ZM151.338 60H150.616V60.7218H151.338V60ZM151.338 56.5816L150.745 56.1702L150.616 56.3558V56.5816H151.338ZM164.669 37.3629L165.262 37.7743L166.048 36.6411H164.669V37.3629ZM152.705 37.3629H151.983V38.0847H152.705V37.3629ZM152.705 33.7926V33.0708H151.983V33.7926H152.705ZM169.531 33.7926H170.253V33.0708H169.531V33.7926ZM169.531 37.249L170.125 37.6584L170.253 37.4735V37.249H169.531ZM156.37 57.0756H169.626V55.6319H156.37V57.0756ZM168.911 56.2569L168.417 59.9031L169.847 60.0969L170.341 56.4506L168.911 56.2569ZM169.132 59.2782H151.338V60.7218H169.132V59.2782ZM152.06 60V56.5816H150.616V60H152.06ZM151.931 56.9931L165.262 37.7743L164.076 36.9515L150.745 56.1702L151.931 56.9931ZM164.669 36.6411H152.705V38.0847H164.669V36.6411ZM153.427 37.3629V33.7926H151.983V37.3629H153.427ZM152.705 34.5145H169.531V33.0708H152.705V34.5145ZM168.809 33.7926V37.249H170.253V33.7926H168.809ZM168.936 36.8395L155.776 55.9443L156.965 56.7632L170.125 37.6584L168.936 36.8395ZM192.21 33.7926L192.931 33.7519L192.892 33.0708H192.21V33.7926ZM193.691 60V60.7218H194.455L194.412 59.9593L193.691 60ZM189.665 60L188.944 60.0354L188.978 60.7218H189.665V60ZM189.039 47.2381L188.317 47.2666L188.318 47.2736L189.039 47.2381ZM188.944 44.4465L188.222 44.4567L188.222 44.4668L188.944 44.4465ZM188.944 39.5848L188.222 39.5591L188.222 39.5717L188.944 39.5848ZM189.02 37.6668L189.741 37.6988L188.314 37.5133L189.02 37.6668ZM185.165 55.3852V56.1071H185.746L185.87 55.5387L185.165 55.3852ZM181.328 55.3852L180.625 55.5495L180.756 56.1071H181.328V55.3852ZM177.188 37.6668L177.891 37.5025L176.468 37.717L177.188 37.6668ZM177.283 39.5848L176.562 39.6097L176.562 39.6101L177.283 39.5848ZM177.34 41.9207L178.062 41.9098L178.062 41.9098L177.34 41.9207ZM177.34 44.5414L176.618 44.5314V44.5414H177.34ZM177.302 47.2761L178.024 47.3052L178.024 47.2962L177.302 47.2761ZM176.79 60V60.7218H177.483L177.511 60.0291L176.79 60ZM172.839 60L172.119 59.9593L172.076 60.7218H172.839V60ZM174.321 33.7926V33.0708H173.639L173.6 33.7519L174.321 33.7926ZM179.6 33.7926L180.306 33.6423L180.184 33.0708H179.6V33.7926ZM183.341 51.3592L182.635 51.5095L184.049 51.5029L183.341 51.3592ZM186.912 33.7926V33.0708H186.322L186.204 33.6489L186.912 33.7926ZM191.489 33.8334L192.971 60.0407L194.412 59.9593L192.931 33.7519L191.489 33.8334ZM193.691 59.2782H189.665V60.7218H193.691V59.2782ZM190.386 59.9646L189.76 47.2027L188.318 47.2736L188.944 60.0354L190.386 59.9646ZM189.76 47.2097C189.722 46.25 189.69 45.3222 189.665 44.4262L188.222 44.4668C188.248 45.3686 188.279 46.3019 188.317 47.2666L189.76 47.2097ZM189.665 44.4363C189.653 43.5405 189.647 42.683 189.647 41.8637H188.203C188.203 42.6904 188.209 43.5547 188.222 44.4567L189.665 44.4363ZM189.647 41.8637C189.647 41.0444 189.653 40.2892 189.665 39.598L188.222 39.5717C188.209 40.2731 188.203 41.0372 188.203 41.8637H189.647ZM189.665 39.6106C189.69 38.9032 189.716 38.266 189.741 37.6988L188.299 37.6347C188.273 38.207 188.248 38.8485 188.222 39.5591L189.665 39.6106ZM188.314 37.5133L184.459 55.2318L185.87 55.5387L189.725 37.8202L188.314 37.5133ZM185.165 54.6634H181.328V56.1071H185.165V54.6634ZM182.031 55.221L177.891 37.5025L176.485 37.831L180.625 55.5495L182.031 55.221ZM176.468 37.717C176.506 38.2506 176.537 38.8812 176.562 39.6097L178.005 39.56C177.979 38.8199 177.947 38.1717 177.908 37.6165L176.468 37.717ZM176.562 39.6101C176.587 40.3263 176.606 41.1001 176.619 41.9316L178.062 41.9098C178.049 41.0701 178.03 40.2866 178.005 39.5595L176.562 39.6101ZM176.619 41.9316C176.631 42.7597 176.631 43.6262 176.619 44.5314L178.062 44.5515C178.075 43.6335 178.075 42.753 178.062 41.9098L176.619 41.9316ZM176.618 44.5414C176.618 45.4463 176.606 46.3512 176.581 47.2561L178.024 47.2962C178.049 46.3779 178.062 45.4597 178.062 44.5414H176.618ZM176.581 47.2471L176.068 59.9709L177.511 60.0291L178.024 47.3052L176.581 47.2471ZM176.79 59.2782H172.839V60.7218H176.79V59.2782ZM173.56 60.0407L175.041 33.8334L173.6 33.7519L172.119 59.9593L173.56 60.0407ZM174.321 34.5145H179.6V33.0708H174.321V34.5145ZM178.894 33.943L182.635 51.5095L184.047 51.2088L180.306 33.6423L178.894 33.943ZM184.049 51.5029L187.619 33.9364L186.204 33.6489L182.634 51.2154L184.049 51.5029ZM186.912 34.5145H192.21V33.0708H186.912V34.5145Z" fill="#D64334" mask="url(#path-1-outside-1_42_54)"/>
<path d="M46.3557 15.4293C46.8186 15.5615 46.9839 15.7599 46.8516 16.0243C46.7855 16.2227 46.3227 16.1896 45.4632 15.9252C42.6202 15.1318 39.4797 14.9665 36.0416 15.4293C32.6036 15.826 29.2977 16.7516 26.1242 18.2062C23.0167 19.5946 20.4712 21.3798 18.4877 23.5616C16.5042 25.6773 15.5125 28.0575 15.5125 30.7022C15.5125 32.6195 16.1075 34.2724 17.2976 35.6609C18.4877 37.0493 20.0415 38.2064 21.9588 39.132C23.9423 39.9915 26.1242 40.6527 28.5043 41.1155C30.9506 41.5122 33.397 41.7105 35.8433 41.7105C39.2813 41.7105 42.6202 41.1816 45.8599 40.1237C49.0996 38.9997 52.0748 37.5452 54.7856 35.76C57.4963 33.9749 59.8765 32.0575 61.9261 30.0079C63.9757 27.8922 65.5625 25.8426 66.6865 23.8591C67.8105 21.8095 68.3725 20.0244 68.3725 18.5037C68.3725 16.388 67.2485 15.3301 65.0005 15.3301C62.7526 15.3301 60.5046 16.2888 58.2567 18.2062C56.0748 20.0574 53.8269 22.5698 51.5128 25.7434C49.1987 28.8509 46.8186 32.2889 44.3723 36.0576C41.926 39.7601 39.3805 43.4957 36.7358 47.2643C34.1573 50.9668 31.4465 54.4048 28.6035 57.5784C25.7605 60.6859 22.7522 63.1983 19.5786 65.1157C16.4712 66.9669 13.1984 67.8926 9.76037 67.8926C6.58679 67.8926 4.33884 67.3306 3.01651 66.2066C1.62807 65.0826 0.933848 63.7934 0.933848 62.3388C0.933848 61.6115 1.29749 60.9504 2.02477 60.3553C2.68593 59.7603 3.44627 59.4627 4.30578 59.4627C5.69422 59.4627 6.38844 60.0908 6.38844 61.3471C6.38844 62.0082 6.09092 62.471 5.49587 62.7355C4.90083 63 4.43801 63.1322 4.10743 63.1322C3.71073 63.1322 3.34709 63.0661 3.01651 62.9338C2.61981 62.8016 2.42146 62.7355 2.42146 62.7355C2.42146 63.4628 2.91734 64.3553 3.90908 65.4132C4.83471 66.4711 6.61985 67 9.2645 67C12.0414 67 14.5538 66.2397 16.8018 64.719C19.1158 63.1983 21.2646 61.1487 23.2481 58.5702C25.2316 55.9916 27.182 53.1156 29.0994 49.942C31.0168 46.7684 33.0333 43.4957 35.149 40.1237C37.2648 36.884 39.5127 33.7435 41.8929 30.7022C44.2731 27.5947 46.7194 24.8178 49.2318 22.3715C51.8103 19.9252 54.4219 17.9748 57.0666 16.5202C59.7112 15.0656 62.3228 14.3384 64.9014 14.3384C68.4717 14.3384 70.2568 15.7929 70.2568 18.702C70.2568 21.1483 69.232 23.7599 67.1824 26.5368C65.1989 29.3137 62.5212 31.9253 59.1492 34.3716C55.8434 36.8179 52.1409 38.8345 48.0417 40.4212C43.9425 41.9419 39.8102 42.7023 35.6449 42.7023C32.9341 42.7023 30.2234 42.4709 27.5126 42.008C24.8679 41.5452 22.4547 40.8179 20.2729 39.8262C18.091 38.8345 16.3389 37.5452 15.0166 35.9584C13.6943 34.3716 13.0331 32.4873 13.0331 30.3055C13.0331 27.793 13.8596 25.5451 15.5125 23.5616C17.1654 21.5781 19.2811 19.9252 21.8597 18.6029C24.5043 17.2144 27.3143 16.1566 30.2895 15.4293C33.3308 14.702 36.273 14.3384 39.116 14.3384C41.959 14.3384 44.3723 14.702 46.3557 15.4293Z" fill="#D64334"/>
</svg>
