<svg width="173" height="99" viewBox="0 0 173 99" fill="none" xmlns="http://www.w3.org/2000/svg">
<mask id="path-1-outside-1_1071_51" maskUnits="userSpaceOnUse" x="60" y="37" width="113" height="39" fill="black">
<rect fill="white" x="60" y="37" width="113" height="39"/>
<path d="M77.706 62.0814C77.706 62.8663 77.8263 63.4424 78.0668 63.8095C78.3074 64.164 78.6935 64.4299 79.2253 64.6072L78.2757 67.4938C77.2882 67.3798 76.4399 67.1076 75.7309 66.6772C75.0219 66.2467 74.4839 65.5947 74.1167 64.7211C73.3824 65.6453 72.4519 66.3417 71.3251 66.8101C70.1983 67.2785 68.9955 67.5128 67.7168 67.5128C65.6911 67.5128 64.0832 66.943 62.8931 65.8036C61.7157 64.6515 61.127 63.1449 61.127 61.2838C61.127 59.1694 61.9499 57.5426 63.5958 56.4031C65.2417 55.2637 67.5965 54.6939 70.6604 54.6939H73.528V53.3836C73.528 52.0922 73.1355 51.1616 72.3506 50.5919C71.5783 50.0222 70.4831 49.7373 69.0652 49.7373C68.4068 49.7373 67.6092 49.8259 66.6723 50.0032C65.7354 50.1678 64.7542 50.4273 63.7287 50.7818L62.6842 47.7813C63.9376 47.3128 65.1657 46.971 66.3685 46.7557C67.5712 46.5279 68.6853 46.4139 69.7108 46.4139C72.3949 46.4139 74.3953 47.009 75.712 48.1991C77.0413 49.3891 77.706 51.035 77.706 53.1367V62.0814ZM69.0082 64.3793C69.8691 64.3793 70.711 64.1514 71.534 63.6956C72.3569 63.2398 73.0216 62.6005 73.528 61.7775V57.3526H71.1731C69.1728 57.3526 67.7421 57.6882 66.8812 58.3592C66.0203 59.0175 65.5898 59.9291 65.5898 61.0938C65.5898 62.1573 65.8747 62.9739 66.4444 63.5437C67.0268 64.1007 67.8814 64.3793 69.0082 64.3793ZM85.3445 67V63.9615H88.288V49.9652H85.3445V46.9457H91.5355L92.3141 51.5984C93.0611 49.9146 93.9853 48.6358 95.0868 47.7623C96.2009 46.876 97.6315 46.4329 99.3787 46.4329C99.9738 46.4329 100.505 46.4835 100.974 46.5848C101.455 46.6735 101.93 46.7937 102.398 46.9457L101.126 50.5919C100.721 50.478 100.341 50.3957 99.9864 50.345C99.6319 50.2817 99.2394 50.2501 98.809 50.2501C97.353 50.2501 96.0933 50.7945 95.0298 51.8833C93.979 52.9721 93.1497 54.5167 92.542 56.517V63.9615H96.5871V67H85.3445ZM98.6381 54.3331V49.3955L99.1698 46.9457H102.398L101.677 54.3331H98.6381ZM115.962 46.4139C117.924 46.4139 119.576 46.8507 120.918 47.7243C122.261 48.5979 123.273 49.8196 123.957 51.3895C124.653 52.9594 125.002 54.8079 125.002 56.9348C125.002 59.0492 124.647 60.9039 123.938 62.4992C123.242 64.0817 122.216 65.3161 120.862 66.2024C119.519 67.076 117.88 67.5128 115.943 67.5128C114.006 67.5128 112.36 67.0886 111.005 66.2404C109.663 65.3794 108.638 64.1577 107.929 62.5751C107.232 60.9926 106.884 59.1251 106.884 56.9728C106.884 54.8838 107.232 53.0481 107.929 51.4655C108.638 49.8829 109.67 48.6485 111.024 47.7623C112.379 46.8634 114.025 46.4139 115.962 46.4139ZM115.962 49.7183C114.43 49.7183 113.278 50.307 112.506 51.4845C111.733 52.6492 111.347 54.4787 111.347 56.9728C111.347 59.4543 111.727 61.2838 112.487 62.4612C113.259 63.6386 114.411 64.2273 115.943 64.2273C117.475 64.2273 118.621 63.6386 119.38 62.4612C120.153 61.2838 120.539 59.4416 120.539 56.9348C120.539 54.466 120.159 52.6492 119.399 51.4845C118.64 50.307 117.494 49.7183 115.962 49.7183ZM142.477 38.4188L146.731 38.8935V67H142.99L142.686 64.5312C142.002 65.4807 141.186 66.215 140.236 66.7341C139.287 67.2532 138.223 67.5128 137.046 67.5128C135.324 67.5128 133.906 67.076 132.792 66.2024C131.678 65.3161 130.849 64.0817 130.304 62.4992C129.772 60.9039 129.507 59.0618 129.507 56.9728C129.507 54.9345 129.823 53.124 130.456 51.5414C131.089 49.9462 131.994 48.6928 133.172 47.7813C134.349 46.8697 135.767 46.4139 137.426 46.4139C138.477 46.4139 139.42 46.6038 140.255 46.9836C141.091 47.3508 141.832 47.8889 142.477 48.5979V38.4188ZM138.546 49.6803C137.116 49.6803 136.001 50.2754 135.204 51.4655C134.406 52.6429 134.007 54.4787 134.007 56.9728C134.007 58.682 134.172 60.0747 134.501 61.1508C134.83 62.2143 135.305 62.9993 135.925 63.5057C136.546 63.9994 137.293 64.2463 138.166 64.2463C139.129 64.2463 139.964 63.9678 140.673 63.4107C141.382 62.8537 141.984 62.1827 142.477 61.3977V51.9023C141.984 51.1933 141.407 50.6489 140.749 50.2691C140.091 49.8766 139.356 49.6803 138.546 49.6803ZM171.025 46.9457L164.112 67.076C163.593 68.5952 162.928 69.9309 162.118 71.083C161.308 72.2478 160.27 73.1847 159.003 73.8937C157.737 74.6027 156.167 75.0395 154.294 75.204L153.743 72.0136C155.098 71.7984 156.174 71.4818 156.971 71.064C157.782 70.6589 158.421 70.1208 158.89 69.4498C159.371 68.7788 159.795 67.9622 160.162 67H158.719L151.958 46.9457H156.478L161.529 64.0374L166.657 46.9457H171.025Z"/>
</mask>
<path d="M77.706 62.0814C77.706 62.8663 77.8263 63.4424 78.0668 63.8095C78.3074 64.164 78.6935 64.4299 79.2253 64.6072L78.2757 67.4938C77.2882 67.3798 76.4399 67.1076 75.7309 66.6772C75.0219 66.2467 74.4839 65.5947 74.1167 64.7211C73.3824 65.6453 72.4519 66.3417 71.3251 66.8101C70.1983 67.2785 68.9955 67.5128 67.7168 67.5128C65.6911 67.5128 64.0832 66.943 62.8931 65.8036C61.7157 64.6515 61.127 63.1449 61.127 61.2838C61.127 59.1694 61.9499 57.5426 63.5958 56.4031C65.2417 55.2637 67.5965 54.6939 70.6604 54.6939H73.528V53.3836C73.528 52.0922 73.1355 51.1616 72.3506 50.5919C71.5783 50.0222 70.4831 49.7373 69.0652 49.7373C68.4068 49.7373 67.6092 49.8259 66.6723 50.0032C65.7354 50.1678 64.7542 50.4273 63.7287 50.7818L62.6842 47.7813C63.9376 47.3128 65.1657 46.971 66.3685 46.7557C67.5712 46.5279 68.6853 46.4139 69.7108 46.4139C72.3949 46.4139 74.3953 47.009 75.712 48.1991C77.0413 49.3891 77.706 51.035 77.706 53.1367V62.0814ZM69.0082 64.3793C69.8691 64.3793 70.711 64.1514 71.534 63.6956C72.3569 63.2398 73.0216 62.6005 73.528 61.7775V57.3526H71.1731C69.1728 57.3526 67.7421 57.6882 66.8812 58.3592C66.0203 59.0175 65.5898 59.9291 65.5898 61.0938C65.5898 62.1573 65.8747 62.9739 66.4444 63.5437C67.0268 64.1007 67.8814 64.3793 69.0082 64.3793ZM85.3445 67V63.9615H88.288V49.9652H85.3445V46.9457H91.5355L92.3141 51.5984C93.0611 49.9146 93.9853 48.6358 95.0868 47.7623C96.2009 46.876 97.6315 46.4329 99.3787 46.4329C99.9738 46.4329 100.505 46.4835 100.974 46.5848C101.455 46.6735 101.93 46.7937 102.398 46.9457L101.126 50.5919C100.721 50.478 100.341 50.3957 99.9864 50.345C99.6319 50.2817 99.2394 50.2501 98.809 50.2501C97.353 50.2501 96.0933 50.7945 95.0298 51.8833C93.979 52.9721 93.1497 54.5167 92.542 56.517V63.9615H96.5871V67H85.3445ZM98.6381 54.3331V49.3955L99.1698 46.9457H102.398L101.677 54.3331H98.6381ZM115.962 46.4139C117.924 46.4139 119.576 46.8507 120.918 47.7243C122.261 48.5979 123.273 49.8196 123.957 51.3895C124.653 52.9594 125.002 54.8079 125.002 56.9348C125.002 59.0492 124.647 60.9039 123.938 62.4992C123.242 64.0817 122.216 65.3161 120.862 66.2024C119.519 67.076 117.88 67.5128 115.943 67.5128C114.006 67.5128 112.36 67.0886 111.005 66.2404C109.663 65.3794 108.638 64.1577 107.929 62.5751C107.232 60.9926 106.884 59.1251 106.884 56.9728C106.884 54.8838 107.232 53.0481 107.929 51.4655C108.638 49.8829 109.67 48.6485 111.024 47.7623C112.379 46.8634 114.025 46.4139 115.962 46.4139ZM115.962 49.7183C114.43 49.7183 113.278 50.307 112.506 51.4845C111.733 52.6492 111.347 54.4787 111.347 56.9728C111.347 59.4543 111.727 61.2838 112.487 62.4612C113.259 63.6386 114.411 64.2273 115.943 64.2273C117.475 64.2273 118.621 63.6386 119.38 62.4612C120.153 61.2838 120.539 59.4416 120.539 56.9348C120.539 54.466 120.159 52.6492 119.399 51.4845C118.64 50.307 117.494 49.7183 115.962 49.7183ZM142.477 38.4188L146.731 38.8935V67H142.99L142.686 64.5312C142.002 65.4807 141.186 66.215 140.236 66.7341C139.287 67.2532 138.223 67.5128 137.046 67.5128C135.324 67.5128 133.906 67.076 132.792 66.2024C131.678 65.3161 130.849 64.0817 130.304 62.4992C129.772 60.9039 129.507 59.0618 129.507 56.9728C129.507 54.9345 129.823 53.124 130.456 51.5414C131.089 49.9462 131.994 48.6928 133.172 47.7813C134.349 46.8697 135.767 46.4139 137.426 46.4139C138.477 46.4139 139.42 46.6038 140.255 46.9836C141.091 47.3508 141.832 47.8889 142.477 48.5979V38.4188ZM138.546 49.6803C137.116 49.6803 136.001 50.2754 135.204 51.4655C134.406 52.6429 134.007 54.4787 134.007 56.9728C134.007 58.682 134.172 60.0747 134.501 61.1508C134.83 62.2143 135.305 62.9993 135.925 63.5057C136.546 63.9994 137.293 64.2463 138.166 64.2463C139.129 64.2463 139.964 63.9678 140.673 63.4107C141.382 62.8537 141.984 62.1827 142.477 61.3977V51.9023C141.984 51.1933 141.407 50.6489 140.749 50.2691C140.091 49.8766 139.356 49.6803 138.546 49.6803ZM171.025 46.9457L164.112 67.076C163.593 68.5952 162.928 69.9309 162.118 71.083C161.308 72.2478 160.27 73.1847 159.003 73.8937C157.737 74.6027 156.167 75.0395 154.294 75.204L153.743 72.0136C155.098 71.7984 156.174 71.4818 156.971 71.064C157.782 70.6589 158.421 70.1208 158.89 69.4498C159.371 68.7788 159.795 67.9622 160.162 67H158.719L151.958 46.9457H156.478L161.529 64.0374L166.657 46.9457H171.025Z" fill="#D64334"/>
<path d="M78.0668 63.8095L77.463 64.2052L77.4695 64.2148L78.0668 63.8095ZM79.2253 64.6072L79.9109 64.8327L80.1356 64.1497L79.4535 63.9224L79.2253 64.6072ZM78.2757 67.4938L78.193 68.2108L78.7775 68.2783L78.9614 67.7193L78.2757 67.4938ZM74.1167 64.7211L74.7822 64.4414L74.3099 63.3176L73.5516 64.2721L74.1167 64.7211ZM71.3251 66.8101L71.6022 67.4766L71.3251 66.8101ZM62.8931 65.8036L62.3883 66.3195L62.3939 66.325L62.8931 65.8036ZM63.5958 56.4031L63.1849 55.8096L63.5958 56.4031ZM73.528 54.6939V55.4158H74.2498V54.6939H73.528ZM72.3506 50.5919L71.922 51.1728L71.9266 51.1761L72.3506 50.5919ZM66.6723 50.0032L66.7972 50.7142L66.8065 50.7124L66.6723 50.0032ZM63.7287 50.7818L63.047 51.0191L63.2838 51.6994L63.9646 51.464L63.7287 50.7818ZM62.6842 47.7813L62.4315 47.1051L61.7705 47.3521L62.0025 48.0186L62.6842 47.7813ZM66.3685 46.7557L66.4956 47.4663L66.5028 47.465L66.3685 46.7557ZM75.712 48.1991L75.2279 48.7346L75.2305 48.7369L75.712 48.1991ZM73.528 61.7775L74.1428 62.1558L74.2498 61.9818V61.7775H73.528ZM73.528 57.3526H74.2498V56.6308H73.528V57.3526ZM66.8812 58.3592L67.3197 58.9326L67.3249 58.9285L66.8812 58.3592ZM66.4444 63.5437L65.934 64.0541L65.9397 64.0597L65.9455 64.0653L66.4444 63.5437ZM76.9842 62.0814C76.9842 62.9105 77.1057 63.6597 77.463 64.2051L78.6706 63.414C78.5468 63.225 78.4278 62.8221 78.4278 62.0814H76.9842ZM77.4695 64.2148C77.8231 64.7359 78.3613 65.0801 78.997 65.2919L79.4535 63.9224C79.0257 63.7798 78.7916 63.5921 78.6641 63.4042L77.4695 64.2148ZM78.5396 64.3816L77.59 67.2682L78.9614 67.7193L79.9109 64.8327L78.5396 64.3816ZM78.3585 66.7767C77.4541 66.6723 76.7097 66.427 76.1056 66.0601L75.3563 67.2942C76.1701 67.7883 77.1223 68.0873 78.193 68.2108L78.3585 66.7767ZM76.1056 66.0601C75.5447 65.7196 75.0991 65.1955 74.7822 64.4414L73.4513 65.0008C73.8687 65.9939 74.4992 66.7738 75.3563 67.2942L76.1056 66.0601ZM73.5516 64.2721C72.8959 65.0973 72.0658 65.7204 71.048 66.1436L71.6022 67.4766C72.8379 66.9629 73.8689 66.1934 74.6819 65.1701L73.5516 64.2721ZM71.048 66.1436C70.0132 66.5738 68.905 66.7909 67.7168 66.7909V68.2346C69.086 68.2346 70.3834 67.9833 71.6022 67.4766L71.048 66.1436ZM67.7168 66.7909C65.8321 66.7909 64.4187 66.2649 63.3923 65.2822L62.3939 66.325C63.7477 67.6211 65.5501 68.2346 67.7168 68.2346V66.7909ZM63.398 65.2876C62.3778 64.2895 61.8488 62.9783 61.8488 61.2838H60.4051C60.4051 63.3115 61.0535 65.0135 62.3883 66.3195L63.398 65.2876ZM61.8488 61.2838C61.8488 59.3905 62.5682 57.9925 64.0067 56.9966L63.1849 55.8096C61.3317 57.0926 60.4051 58.9483 60.4051 61.2838H61.8488ZM64.0067 56.9966C65.4833 55.9743 67.6706 55.4158 70.6604 55.4158V53.9721C67.5225 53.9721 65 54.553 63.1849 55.8096L64.0067 56.9966ZM70.6604 55.4158H73.528V53.9721H70.6604V55.4158ZM74.2498 54.6939V53.3836H72.8062V54.6939H74.2498ZM74.2498 53.3836C74.2498 51.9446 73.8053 50.7559 72.7746 50.0077L71.9266 51.1761C72.4657 51.5674 72.8062 52.2397 72.8062 53.3836H74.2498ZM72.7791 50.011C71.8361 49.3154 70.5671 49.0155 69.0652 49.0155V50.4591C70.3992 50.4591 71.3205 50.729 71.9221 51.1728L72.7791 50.011ZM69.0652 49.0155C68.3467 49.0155 67.5014 49.1117 66.5381 49.2939L66.8065 50.7124C67.7169 50.5402 68.4669 50.4591 69.0652 50.4591V49.0155ZM66.5474 49.2922C65.568 49.4643 64.5496 49.7343 63.4929 50.0996L63.9646 51.464C64.9588 51.1203 65.9028 50.8713 66.7972 50.7141L66.5474 49.2922ZM64.4104 50.5445L63.3659 47.544L62.0025 48.0186L63.047 51.0191L64.4104 50.5445ZM62.9369 48.4574C64.1534 48.0028 65.3395 47.6732 66.4956 47.4663L66.2413 46.0452C64.9919 46.2688 63.7218 46.6229 62.4315 47.1051L62.9369 48.4574ZM66.5028 47.465C67.6695 47.2439 68.7381 47.1357 69.7108 47.1357V45.6921C68.6326 45.6921 67.4729 45.8118 66.2341 46.0465L66.5028 47.465ZM69.7108 47.1357C72.305 47.1357 74.0977 47.713 75.2279 48.7346L76.196 47.6635C74.6928 46.3049 72.4848 45.6921 69.7108 45.6921V47.1357ZM75.2305 48.7369C76.3794 49.7654 76.9842 51.2003 76.9842 53.1367H78.4278C78.4278 50.8698 77.7032 49.0129 76.1934 47.6613L75.2305 48.7369ZM76.9842 53.1367V62.0814H78.4278V53.1367H76.9842ZM69.0082 65.1011C70.0026 65.1011 70.9639 64.8365 71.8837 64.327L71.1842 63.0641C70.4582 63.4663 69.7356 63.6574 69.0082 63.6574V65.1011ZM71.8837 64.327C72.8183 63.8094 73.5731 63.0815 74.1428 62.1558L72.9132 61.3992C72.4701 62.1194 71.8955 62.6702 71.1842 63.0641L71.8837 64.327ZM74.2498 61.7775V57.3526H72.8062V61.7775H74.2498ZM73.528 56.6308H71.1731V58.0745H73.528V56.6308ZM71.1731 56.6308C69.1293 56.6308 67.494 56.9663 66.4375 57.7898L67.3249 58.9285C67.9902 58.41 69.2163 58.0745 71.1731 58.0745V56.6308ZM66.4427 57.7858C65.3883 58.5921 64.868 59.7237 64.868 61.0938H66.3117C66.3117 60.1345 66.6523 59.4429 67.3197 58.9326L66.4427 57.7858ZM64.868 61.0938C64.868 62.2853 65.1898 63.3099 65.934 64.0541L66.9548 63.0333C66.5596 62.638 66.3117 62.0294 66.3117 61.0938H64.868ZM65.9455 64.0653C66.7079 64.7945 67.7701 65.1011 69.0082 65.1011V63.6574C67.9926 63.6574 67.3457 63.4069 66.9434 63.022L65.9455 64.0653ZM85.3445 67H84.6226V67.7218H85.3445V67ZM85.3445 63.9615V63.2396H84.6226V63.9615H85.3445ZM88.288 63.9615V64.6833H89.0099V63.9615H88.288ZM88.288 49.9652H89.0099V49.2434H88.288V49.9652ZM85.3445 49.9652H84.6226V50.687H85.3445V49.9652ZM85.3445 46.9457V46.2238H84.6226V46.9457H85.3445ZM91.5355 46.9457L92.2474 46.8265L92.1466 46.2238H91.5355V46.9457ZM92.3141 51.5984L91.6022 51.7176L91.999 54.0888L92.9739 51.8911L92.3141 51.5984ZM95.0868 47.7623L95.5353 48.3278L95.5361 48.3272L95.0868 47.7623ZM100.974 46.5848L100.821 47.2904L100.832 47.2927L100.843 47.2947L100.974 46.5848ZM102.398 46.9457L103.08 47.1835L103.323 46.4867L102.621 46.259L102.398 46.9457ZM101.126 50.5919L100.93 51.2868L101.584 51.4705L101.807 50.8297L101.126 50.5919ZM99.9864 50.345L99.8595 51.0556L99.8719 51.0578L99.8843 51.0596L99.9864 50.345ZM95.0298 51.8833L94.5134 51.3789L94.5104 51.382L95.0298 51.8833ZM92.542 56.517L91.8513 56.3072L91.8202 56.4098V56.517H92.542ZM92.542 63.9615H91.8202V64.6833H92.542V63.9615ZM96.5871 63.9615H97.3089V63.2396H96.5871V63.9615ZM96.5871 67V67.7218H97.3089V67H96.5871ZM98.6381 54.3331H97.9162V55.0549H98.6381V54.3331ZM98.6381 49.3955L97.9327 49.2424L97.9162 49.318V49.3955H98.6381ZM99.1698 46.9457V46.2238H98.5878L98.4644 46.7925L99.1698 46.9457ZM102.398 46.9457L103.117 47.0158L103.194 46.2238H102.398V46.9457ZM101.677 54.3331V55.0549H102.331L102.395 54.4033L101.677 54.3331ZM86.0663 67V63.9615H84.6226V67H86.0663ZM85.3445 64.6833H88.288V63.2396H85.3445V64.6833ZM89.0099 63.9615V49.9652H87.5662V63.9615H89.0099ZM88.288 49.2434H85.3445V50.687H88.288V49.2434ZM86.0663 49.9652V46.9457H84.6226V49.9652H86.0663ZM85.3445 47.6675H91.5355V46.2238H85.3445V47.6675ZM90.8236 47.0648L91.6022 51.7176L93.026 51.4793L92.2474 46.8265L90.8236 47.0648ZM92.9739 51.8911C93.6877 50.282 94.5492 49.1099 95.5353 48.3278L94.6382 47.1967C93.4214 48.1618 92.4344 49.5471 91.6543 51.3057L92.9739 51.8911ZM95.5361 48.3272C96.4956 47.564 97.7566 47.1547 99.3787 47.1547V45.7111C97.5065 45.7111 95.9062 46.1881 94.6374 47.1974L95.5361 48.3272ZM99.3787 47.1547C99.9342 47.1547 100.413 47.2021 100.821 47.2904L101.126 45.8793C100.598 45.765 100.013 45.7111 99.3787 45.7111V47.1547ZM100.843 47.2947C101.293 47.3776 101.737 47.49 102.176 47.6323L102.621 46.259C102.123 46.0974 101.617 45.9693 101.105 45.8749L100.843 47.2947ZM101.717 46.7078L100.444 50.3541L101.807 50.8297L103.08 47.1835L101.717 46.7078ZM101.321 49.897C100.891 49.7759 100.479 49.6863 100.088 49.6304L99.8843 51.0596C100.202 51.105 100.551 51.18 100.93 51.2868L101.321 49.897ZM100.113 49.6344C99.7098 49.5624 99.274 49.5282 98.809 49.5282V50.9719C99.2049 50.9719 99.5541 51.0011 99.8595 51.0556L100.113 49.6344ZM98.809 49.5282C97.149 49.5282 95.7058 50.1581 94.5134 51.3789L95.5462 52.3877C96.4807 51.4308 97.557 50.9719 98.809 50.9719V49.5282ZM94.5104 51.382C93.3558 52.5783 92.4803 54.237 91.8513 56.3072L93.2327 56.7269C93.8191 54.7964 94.6021 53.3659 95.5492 52.3846L94.5104 51.382ZM91.8202 56.517V63.9615H93.2638V56.517H91.8202ZM92.542 64.6833H96.5871V63.2396H92.542V64.6833ZM95.8652 63.9615V67H97.3089V63.9615H95.8652ZM96.5871 66.2782H85.3445V67.7218H96.5871V66.2782ZM99.3599 54.3331V49.3955H97.9162V54.3331H99.3599ZM99.3435 49.5486L99.8752 47.0988L98.4644 46.7925L97.9327 49.2424L99.3435 49.5486ZM99.1698 47.6675H102.398V46.2238H99.1698V47.6675ZM101.68 46.8755L100.958 54.2629L102.395 54.4033L103.117 47.0158L101.68 46.8755ZM101.677 53.6113H98.6381V55.0549H101.677V53.6113ZM120.918 47.7243L121.312 47.1193L120.918 47.7243ZM123.957 51.3895L123.295 51.6777L123.297 51.6822L123.957 51.3895ZM123.938 62.4992L123.278 62.206L123.277 62.2085L123.938 62.4992ZM120.862 66.2024L121.255 66.8073L121.257 66.8064L120.862 66.2024ZM111.005 66.2404L110.615 66.848L110.622 66.8522L111.005 66.2404ZM107.929 62.5751L107.268 62.8658L107.27 62.8703L107.929 62.5751ZM107.929 51.4655L107.27 51.1704L107.268 51.1748L107.929 51.4655ZM111.024 47.7623L111.419 48.3663L111.423 48.3637L111.024 47.7623ZM112.506 51.4845L113.107 51.8834L113.109 51.8804L112.506 51.4845ZM112.487 62.4612L111.88 62.8525L111.883 62.8571L112.487 62.4612ZM119.38 62.4612L118.777 62.0653L118.774 62.0699L119.38 62.4612ZM119.399 51.4845L118.793 51.8758L118.795 51.8788L119.399 51.4845ZM115.962 47.1357C117.816 47.1357 119.324 47.5476 120.525 48.3292L121.312 47.1193C119.829 46.1538 118.032 45.6921 115.962 45.6921V47.1357ZM120.525 48.3292C121.74 49.1203 122.664 50.2279 123.295 51.6777L124.619 51.1013C123.883 49.4113 122.781 48.0754 121.312 47.1193L120.525 48.3292ZM123.297 51.6822C123.944 53.1407 124.28 54.8853 124.28 56.9348H125.723C125.723 54.7304 125.363 52.7781 124.617 51.0968L123.297 51.6822ZM124.28 56.9348C124.28 58.9691 123.939 60.7204 123.278 62.206L124.598 62.7923C125.355 61.0875 125.723 59.1293 125.723 56.9348H124.28ZM123.277 62.2085C122.633 63.6722 121.696 64.7939 120.466 65.5983L121.257 66.8064C122.736 65.8384 123.85 64.4913 124.599 62.7899L123.277 62.2085ZM120.468 65.5974C119.265 66.38 117.77 66.7909 115.943 66.7909V68.2346C117.99 68.2346 119.774 67.7719 121.255 66.8073L120.468 65.5974ZM115.943 66.7909C114.112 66.7909 112.606 66.391 111.388 65.6286L110.622 66.8522C112.114 67.7862 113.899 68.2346 115.943 68.2346V66.7909ZM111.395 65.6328C110.181 64.8543 109.244 63.7462 108.587 62.28L107.27 62.8703C108.031 64.5692 109.145 65.9046 110.616 66.8479L111.395 65.6328ZM108.589 62.2844C107.942 60.813 107.606 59.0488 107.606 56.9728H106.162C106.162 59.2014 106.523 61.1721 107.268 62.8658L108.589 62.2844ZM107.606 56.9728C107.606 54.9635 107.941 53.2301 108.589 51.7562L107.268 51.1748C106.524 52.866 106.162 54.8042 106.162 56.9728H107.606ZM108.587 51.7606C109.244 50.2947 110.189 49.1715 111.419 48.3663L110.629 47.1582C109.15 48.1255 108.031 49.4711 107.27 51.1704L108.587 51.7606ZM111.423 48.3637C112.639 47.5573 114.139 47.1357 115.962 47.1357V45.6921C113.91 45.6921 112.119 46.1694 110.625 47.1608L111.423 48.3637ZM115.962 48.9965C114.212 48.9965 112.821 49.6874 111.902 51.0886L113.109 51.8804C113.735 50.9267 114.648 50.4402 115.962 50.4402V48.9965ZM111.904 51.0856C111.013 52.4295 110.625 54.4338 110.625 56.9728H112.069C112.069 54.5236 112.454 52.869 113.107 51.8834L111.904 51.0856ZM110.625 56.9728C110.625 59.4998 111.007 61.4991 111.88 62.8525L113.093 62.0699C112.447 61.0684 112.069 59.4088 112.069 56.9728H110.625ZM111.883 62.8571C112.802 64.2583 114.193 64.9492 115.943 64.9492V63.5055C114.629 63.5055 113.716 63.019 113.09 62.0653L111.883 62.8571ZM115.943 64.9492C117.693 64.9492 119.08 64.2578 119.987 62.8525L118.774 62.0699C118.161 63.0194 117.257 63.5055 115.943 63.5055V64.9492ZM119.984 62.8571C120.873 61.5017 121.261 59.4867 121.261 56.9348H119.817C119.817 59.3966 119.432 61.0658 118.777 62.0653L119.984 62.8571ZM121.261 56.9348C121.261 54.4207 120.879 52.4321 120.004 51.0902L118.795 51.8788C119.439 52.8664 119.817 54.5114 119.817 56.9348H121.261ZM120.006 51.0931C119.099 49.6878 117.712 48.9965 115.962 48.9965V50.4402C117.276 50.4402 118.18 50.9263 118.793 51.8758L120.006 51.0931ZM142.477 38.4188L142.557 37.7014L141.755 37.6119V38.4188H142.477ZM146.731 38.8935H147.453V38.2478L146.811 38.1762L146.731 38.8935ZM146.731 67V67.7218H147.453V67H146.731ZM142.99 67L142.274 67.0882L142.352 67.7218H142.99V67ZM142.686 64.5312L143.403 64.443L143.177 62.6135L142.1 64.1094L142.686 64.5312ZM140.236 66.7341L139.89 66.1008L140.236 66.7341ZM132.792 66.2024L132.343 66.7673L132.347 66.7704L132.792 66.2024ZM130.304 62.4992L129.619 62.7274L129.622 62.734L130.304 62.4992ZM130.456 51.5414L131.126 51.8095L131.127 51.8077L130.456 51.5414ZM133.172 47.7813L133.614 48.352L133.172 47.7813ZM140.255 46.9836L139.957 47.6408L139.965 47.6445L140.255 46.9836ZM142.477 48.5979L141.944 49.0839L143.199 50.4625V48.5979H142.477ZM135.204 51.4655L135.801 51.8703L135.803 51.8674L135.204 51.4655ZM134.501 61.1508L133.811 61.362L133.812 61.3643L134.501 61.1508ZM135.925 63.5057L135.469 64.0649L135.476 64.0705L135.925 63.5057ZM140.673 63.4107L140.227 62.8431L140.673 63.4107ZM142.477 61.3977L143.088 61.782L143.199 61.6058V61.3977H142.477ZM142.477 51.9023H143.199V51.6757L143.07 51.4897L142.477 51.9023ZM140.749 50.2691L140.379 50.8891L140.388 50.8943L140.749 50.2691ZM142.397 39.1361L146.651 39.6109L146.811 38.1762L142.557 37.7014L142.397 39.1361ZM146.009 38.8935V67H147.453V38.8935H146.009ZM146.731 66.2782H142.99V67.7218H146.731V66.2782ZM143.706 66.9118L143.403 64.443L141.97 64.6194L142.274 67.0882L143.706 66.9118ZM142.1 64.1094C141.475 64.9786 140.737 65.6375 139.89 66.1008L140.583 67.3675C141.634 66.7926 142.53 65.9828 143.272 64.953L142.1 64.1094ZM139.89 66.1008C139.056 66.5568 138.113 66.7909 137.046 66.7909V68.2346C138.333 68.2346 139.518 67.9496 140.583 67.3675L139.89 66.1008ZM137.046 66.7909C135.45 66.7909 134.199 66.3882 133.237 65.6343L132.347 66.7704C133.613 67.7638 135.199 68.2346 137.046 68.2346V66.7909ZM133.241 65.6375C132.252 64.8509 131.494 63.7401 130.987 62.2644L129.622 62.734C130.203 64.4233 131.103 65.7814 132.343 66.7673L133.241 65.6375ZM130.989 62.2709C130.487 60.7646 130.228 59.0023 130.228 56.9728H128.785C128.785 59.1214 129.058 61.0433 129.619 62.7274L130.989 62.2709ZM130.228 56.9728C130.228 55.0087 130.533 53.2919 131.126 51.8095L129.786 51.2734C129.113 52.9561 128.785 54.8602 128.785 56.9728H130.228ZM131.127 51.8077C131.72 50.314 132.553 49.173 133.614 48.352L132.73 47.2105C131.435 48.2126 130.458 49.5784 129.785 51.2752L131.127 51.8077ZM133.614 48.352C134.65 47.5495 135.908 47.1357 137.426 47.1357V45.6921C135.626 45.6921 134.048 46.1898 132.73 47.2105L133.614 48.352ZM137.426 47.1357C138.388 47.1357 139.228 47.3094 139.957 47.6408L140.554 46.3265C139.612 45.8983 138.565 45.6921 137.426 45.6921V47.1357ZM139.965 47.6445C140.703 47.969 141.362 48.4457 141.944 49.0839L143.011 48.1118C142.301 47.3321 141.478 46.7326 140.546 46.3228L139.965 47.6445ZM143.199 48.5979V38.4188H141.755V48.5979H143.199ZM138.546 48.9585C136.874 48.9585 135.536 49.6739 134.604 51.0636L135.803 51.8674C136.467 50.8769 137.357 50.4022 138.546 50.4022V48.9585ZM134.606 51.0606C133.687 52.4178 133.286 54.4301 133.286 56.9728H134.729C134.729 54.5273 135.126 52.868 135.801 51.8703L134.606 51.0606ZM133.286 56.9728C133.286 58.7205 133.453 60.1917 133.811 61.362L135.191 60.9397C134.891 59.9577 134.729 58.6435 134.729 56.9728H133.286ZM133.812 61.3643C134.167 62.5123 134.703 63.4399 135.469 64.0649L136.382 62.9465C135.907 62.5586 135.494 61.9163 135.191 60.9374L133.812 61.3643ZM135.476 64.0705C136.237 64.6764 137.147 64.9682 138.166 64.9682V63.5245C137.438 63.5245 136.854 63.3225 136.375 62.9409L135.476 64.0705ZM138.166 64.9682C139.279 64.9682 140.274 64.6423 141.119 63.9783L140.227 62.8431C139.654 63.2933 138.978 63.5245 138.166 63.5245V64.9682ZM141.119 63.9783C141.895 63.3686 142.552 62.6351 143.088 61.782L141.866 61.0134C141.415 61.7302 140.869 62.3387 140.227 62.8431L141.119 63.9783ZM143.199 61.3977V51.9023H141.755V61.3977H143.199ZM143.07 51.4897C142.524 50.7056 141.872 50.0835 141.11 49.6438L140.388 50.8943C140.943 51.2143 141.443 51.6809 141.885 52.3148L143.07 51.4897ZM141.119 49.649C140.342 49.1861 139.479 48.9585 138.546 48.9585V50.4022C139.234 50.4022 139.839 50.5671 140.379 50.8891L141.119 49.649ZM171.025 46.9457L171.707 47.1801L172.036 46.2238H171.025V46.9457ZM164.112 67.076L163.429 66.8415L163.429 66.8426L164.112 67.076ZM162.118 71.083L161.528 70.6678L161.525 70.6708L162.118 71.083ZM159.003 73.8937L158.651 73.2639L159.003 73.8937ZM154.294 75.204L153.582 75.3268L153.695 75.9812L154.357 75.9231L154.294 75.204ZM153.743 72.0136L153.63 71.3007L152.907 71.4155L153.032 72.1364L153.743 72.0136ZM156.971 71.064L156.649 70.4183L156.637 70.4246L156.971 71.064ZM158.89 69.4498L158.303 69.0292L158.298 69.0366L158.89 69.4498ZM160.162 67L160.836 67.2573L161.21 66.2782H160.162V67ZM158.719 67L158.035 67.2306L158.2 67.7218H158.719V67ZM151.958 46.9457V46.2238H150.953L151.274 47.1763L151.958 46.9457ZM156.478 46.9457L157.17 46.7411L157.017 46.2238H156.478V46.9457ZM161.529 64.0374L160.837 64.242L161.524 66.5667L162.221 64.2448L161.529 64.0374ZM166.657 46.9457V46.2238H166.12L165.965 46.7382L166.657 46.9457ZM170.342 46.7112L163.429 66.8415L164.795 67.3104L171.707 47.1801L170.342 46.7112ZM163.429 66.8426C162.929 68.306 162.293 69.5788 161.528 70.6678L162.708 71.4983C163.563 70.2831 164.257 68.8844 164.795 67.3093L163.429 66.8426ZM161.525 70.6708C160.779 71.7438 159.824 72.6071 158.651 73.2639L159.356 74.5235C160.715 73.7623 161.836 72.7519 162.711 71.4952L161.525 70.6708ZM158.651 73.2639C157.496 73.9105 156.031 74.3268 154.231 74.485L154.357 75.9231C156.303 75.7521 157.979 75.2948 159.356 74.5235L158.651 73.2639ZM155.005 75.0813L154.454 71.8908L153.032 72.1364L153.582 75.3268L155.005 75.0813ZM153.856 72.7265C155.252 72.5047 156.413 72.1714 157.306 71.7035L156.637 70.4246C155.935 70.7923 154.943 71.092 153.63 71.3007L153.856 72.7265ZM157.294 71.7097C158.2 71.2566 158.937 70.643 159.481 69.863L158.298 69.0366C157.905 69.5987 157.363 70.0612 156.649 70.4184L157.294 71.7097ZM159.476 69.8704C160.001 69.1384 160.452 68.2639 160.836 67.2573L159.487 66.7427C159.137 67.6605 158.74 68.4193 158.303 69.0292L159.476 69.8704ZM160.162 66.2782H158.719V67.7218H160.162V66.2782ZM159.403 66.7694L152.642 46.7151L151.274 47.1763L158.035 67.2306L159.403 66.7694ZM151.958 47.6675H156.478V46.2238H151.958V47.6675ZM155.785 47.1503L160.837 64.242L162.221 63.8328L157.17 46.7411L155.785 47.1503ZM162.221 64.2448L167.348 47.1531L165.965 46.7382L160.838 63.83L162.221 64.2448ZM166.657 47.6675H171.025V46.2238H166.657V47.6675Z" fill="#D64334" mask="url(#path-1-outside-1_1071_51)"/>
<path d="M78.0668 63.8095L77.463 64.2052L77.4695 64.2148L78.0668 63.8095ZM79.2253 64.6072L79.9109 64.8327L80.1356 64.1497L79.4535 63.9224L79.2253 64.6072ZM78.2757 67.4938L78.193 68.2108L78.7775 68.2783L78.9614 67.7193L78.2757 67.4938ZM74.1167 64.7211L74.7822 64.4414L74.3099 63.3176L73.5516 64.2721L74.1167 64.7211ZM71.3251 66.8101L71.6022 67.4766L71.3251 66.8101ZM62.8931 65.8036L62.3883 66.3195L62.3939 66.325L62.8931 65.8036ZM63.5958 56.4031L63.1849 55.8096L63.5958 56.4031ZM73.528 54.6939V55.4158H74.2498V54.6939H73.528ZM72.3506 50.5919L71.922 51.1728L71.9266 51.1761L72.3506 50.5919ZM66.6723 50.0032L66.7972 50.7142L66.8065 50.7124L66.6723 50.0032ZM63.7287 50.7818L63.047 51.0191L63.2838 51.6994L63.9646 51.464L63.7287 50.7818ZM62.6842 47.7813L62.4315 47.1051L61.7705 47.3521L62.0025 48.0186L62.6842 47.7813ZM66.3685 46.7557L66.4956 47.4663L66.5028 47.465L66.3685 46.7557ZM75.712 48.1991L75.2279 48.7346L75.2305 48.7369L75.712 48.1991ZM73.528 61.7775L74.1428 62.1558L74.2498 61.9818V61.7775H73.528ZM73.528 57.3526H74.2498V56.6308H73.528V57.3526ZM66.8812 58.3592L67.3197 58.9326L67.3249 58.9285L66.8812 58.3592ZM66.4444 63.5437L65.934 64.0541L65.9397 64.0597L65.9455 64.0653L66.4444 63.5437ZM76.9842 62.0814C76.9842 62.9105 77.1057 63.6597 77.463 64.2051L78.6706 63.414C78.5468 63.225 78.4278 62.8221 78.4278 62.0814H76.9842ZM77.4695 64.2148C77.8231 64.7359 78.3613 65.0801 78.997 65.2919L79.4535 63.9224C79.0257 63.7798 78.7916 63.5921 78.6641 63.4042L77.4695 64.2148ZM78.5396 64.3816L77.59 67.2682L78.9614 67.7193L79.9109 64.8327L78.5396 64.3816ZM78.3585 66.7767C77.4541 66.6723 76.7097 66.427 76.1056 66.0601L75.3563 67.2942C76.1701 67.7883 77.1223 68.0873 78.193 68.2108L78.3585 66.7767ZM76.1056 66.0601C75.5447 65.7196 75.0991 65.1955 74.7822 64.4414L73.4513 65.0008C73.8687 65.9939 74.4992 66.7738 75.3563 67.2942L76.1056 66.0601ZM73.5516 64.2721C72.8959 65.0973 72.0658 65.7204 71.048 66.1436L71.6022 67.4766C72.8379 66.9629 73.8689 66.1934 74.6819 65.1701L73.5516 64.2721ZM71.048 66.1436C70.0132 66.5738 68.905 66.7909 67.7168 66.7909V68.2346C69.086 68.2346 70.3834 67.9833 71.6022 67.4766L71.048 66.1436ZM67.7168 66.7909C65.8321 66.7909 64.4187 66.2649 63.3923 65.2822L62.3939 66.325C63.7477 67.6211 65.5501 68.2346 67.7168 68.2346V66.7909ZM63.398 65.2876C62.3778 64.2895 61.8488 62.9783 61.8488 61.2838H60.4051C60.4051 63.3115 61.0535 65.0135 62.3883 66.3195L63.398 65.2876ZM61.8488 61.2838C61.8488 59.3905 62.5682 57.9925 64.0067 56.9966L63.1849 55.8096C61.3317 57.0926 60.4051 58.9483 60.4051 61.2838H61.8488ZM64.0067 56.9966C65.4833 55.9743 67.6706 55.4158 70.6604 55.4158V53.9721C67.5225 53.9721 65 54.553 63.1849 55.8096L64.0067 56.9966ZM70.6604 55.4158H73.528V53.9721H70.6604V55.4158ZM74.2498 54.6939V53.3836H72.8062V54.6939H74.2498ZM74.2498 53.3836C74.2498 51.9446 73.8053 50.7559 72.7746 50.0077L71.9266 51.1761C72.4657 51.5674 72.8062 52.2397 72.8062 53.3836H74.2498ZM72.7791 50.011C71.8361 49.3154 70.5671 49.0155 69.0652 49.0155V50.4591C70.3992 50.4591 71.3205 50.729 71.9221 51.1728L72.7791 50.011ZM69.0652 49.0155C68.3467 49.0155 67.5014 49.1117 66.5381 49.2939L66.8065 50.7124C67.7169 50.5402 68.4669 50.4591 69.0652 50.4591V49.0155ZM66.5474 49.2922C65.568 49.4643 64.5496 49.7343 63.4929 50.0996L63.9646 51.464C64.9588 51.1203 65.9028 50.8713 66.7972 50.7141L66.5474 49.2922ZM64.4104 50.5445L63.3659 47.544L62.0025 48.0186L63.047 51.0191L64.4104 50.5445ZM62.9369 48.4574C64.1534 48.0028 65.3395 47.6732 66.4956 47.4663L66.2413 46.0452C64.9919 46.2688 63.7218 46.6229 62.4315 47.1051L62.9369 48.4574ZM66.5028 47.465C67.6695 47.2439 68.7381 47.1357 69.7108 47.1357V45.6921C68.6326 45.6921 67.4729 45.8118 66.2341 46.0465L66.5028 47.465ZM69.7108 47.1357C72.305 47.1357 74.0977 47.713 75.2279 48.7346L76.196 47.6635C74.6928 46.3049 72.4848 45.6921 69.7108 45.6921V47.1357ZM75.2305 48.7369C76.3794 49.7654 76.9842 51.2003 76.9842 53.1367H78.4278C78.4278 50.8698 77.7032 49.0129 76.1934 47.6613L75.2305 48.7369ZM76.9842 53.1367V62.0814H78.4278V53.1367H76.9842ZM69.0082 65.1011C70.0026 65.1011 70.9639 64.8365 71.8837 64.327L71.1842 63.0641C70.4582 63.4663 69.7356 63.6574 69.0082 63.6574V65.1011ZM71.8837 64.327C72.8183 63.8094 73.5731 63.0815 74.1428 62.1558L72.9132 61.3992C72.4701 62.1194 71.8955 62.6702 71.1842 63.0641L71.8837 64.327ZM74.2498 61.7775V57.3526H72.8062V61.7775H74.2498ZM73.528 56.6308H71.1731V58.0745H73.528V56.6308ZM71.1731 56.6308C69.1293 56.6308 67.494 56.9663 66.4375 57.7898L67.3249 58.9285C67.9902 58.41 69.2163 58.0745 71.1731 58.0745V56.6308ZM66.4427 57.7858C65.3883 58.5921 64.868 59.7237 64.868 61.0938H66.3117C66.3117 60.1345 66.6523 59.4429 67.3197 58.9326L66.4427 57.7858ZM64.868 61.0938C64.868 62.2853 65.1898 63.3099 65.934 64.0541L66.9548 63.0333C66.5596 62.638 66.3117 62.0294 66.3117 61.0938H64.868ZM65.9455 64.0653C66.7079 64.7945 67.7701 65.1011 69.0082 65.1011V63.6574C67.9926 63.6574 67.3457 63.4069 66.9434 63.022L65.9455 64.0653ZM85.3445 67H84.6226V67.7218H85.3445V67ZM85.3445 63.9615V63.2396H84.6226V63.9615H85.3445ZM88.288 63.9615V64.6833H89.0099V63.9615H88.288ZM88.288 49.9652H89.0099V49.2434H88.288V49.9652ZM85.3445 49.9652H84.6226V50.687H85.3445V49.9652ZM85.3445 46.9457V46.2238H84.6226V46.9457H85.3445ZM91.5355 46.9457L92.2474 46.8265L92.1466 46.2238H91.5355V46.9457ZM92.3141 51.5984L91.6022 51.7176L91.999 54.0888L92.9739 51.8911L92.3141 51.5984ZM95.0868 47.7623L95.5353 48.3278L95.5361 48.3272L95.0868 47.7623ZM100.974 46.5848L100.821 47.2904L100.832 47.2927L100.843 47.2947L100.974 46.5848ZM102.398 46.9457L103.08 47.1835L103.323 46.4867L102.621 46.259L102.398 46.9457ZM101.126 50.5919L100.93 51.2868L101.584 51.4705L101.807 50.8297L101.126 50.5919ZM99.9864 50.345L99.8595 51.0556L99.8719 51.0578L99.8843 51.0596L99.9864 50.345ZM95.0298 51.8833L94.5134 51.3789L94.5104 51.382L95.0298 51.8833ZM92.542 56.517L91.8513 56.3072L91.8202 56.4098V56.517H92.542ZM92.542 63.9615H91.8202V64.6833H92.542V63.9615ZM96.5871 63.9615H97.3089V63.2396H96.5871V63.9615ZM96.5871 67V67.7218H97.3089V67H96.5871ZM98.6381 54.3331H97.9162V55.0549H98.6381V54.3331ZM98.6381 49.3955L97.9327 49.2424L97.9162 49.318V49.3955H98.6381ZM99.1698 46.9457V46.2238H98.5878L98.4644 46.7925L99.1698 46.9457ZM102.398 46.9457L103.117 47.0158L103.194 46.2238H102.398V46.9457ZM101.677 54.3331V55.0549H102.331L102.395 54.4033L101.677 54.3331ZM86.0663 67V63.9615H84.6226V67H86.0663ZM85.3445 64.6833H88.288V63.2396H85.3445V64.6833ZM89.0099 63.9615V49.9652H87.5662V63.9615H89.0099ZM88.288 49.2434H85.3445V50.687H88.288V49.2434ZM86.0663 49.9652V46.9457H84.6226V49.9652H86.0663ZM85.3445 47.6675H91.5355V46.2238H85.3445V47.6675ZM90.8236 47.0648L91.6022 51.7176L93.026 51.4793L92.2474 46.8265L90.8236 47.0648ZM92.9739 51.8911C93.6877 50.282 94.5492 49.1099 95.5353 48.3278L94.6382 47.1967C93.4214 48.1618 92.4344 49.5471 91.6543 51.3057L92.9739 51.8911ZM95.5361 48.3272C96.4956 47.564 97.7566 47.1547 99.3787 47.1547V45.7111C97.5065 45.7111 95.9062 46.1881 94.6374 47.1974L95.5361 48.3272ZM99.3787 47.1547C99.9342 47.1547 100.413 47.2021 100.821 47.2904L101.126 45.8793C100.598 45.765 100.013 45.7111 99.3787 45.7111V47.1547ZM100.843 47.2947C101.293 47.3776 101.737 47.49 102.176 47.6323L102.621 46.259C102.123 46.0974 101.617 45.9693 101.105 45.8749L100.843 47.2947ZM101.717 46.7078L100.444 50.3541L101.807 50.8297L103.08 47.1835L101.717 46.7078ZM101.321 49.897C100.891 49.7759 100.479 49.6863 100.088 49.6304L99.8843 51.0596C100.202 51.105 100.551 51.18 100.93 51.2868L101.321 49.897ZM100.113 49.6344C99.7098 49.5624 99.274 49.5282 98.809 49.5282V50.9719C99.2049 50.9719 99.5541 51.0011 99.8595 51.0556L100.113 49.6344ZM98.809 49.5282C97.149 49.5282 95.7058 50.1581 94.5134 51.3789L95.5462 52.3877C96.4807 51.4308 97.557 50.9719 98.809 50.9719V49.5282ZM94.5104 51.382C93.3558 52.5783 92.4803 54.237 91.8513 56.3072L93.2327 56.7269C93.8191 54.7964 94.6021 53.3659 95.5492 52.3846L94.5104 51.382ZM91.8202 56.517V63.9615H93.2638V56.517H91.8202ZM92.542 64.6833H96.5871V63.2396H92.542V64.6833ZM95.8652 63.9615V67H97.3089V63.9615H95.8652ZM96.5871 66.2782H85.3445V67.7218H96.5871V66.2782ZM99.3599 54.3331V49.3955H97.9162V54.3331H99.3599ZM99.3435 49.5486L99.8752 47.0988L98.4644 46.7925L97.9327 49.2424L99.3435 49.5486ZM99.1698 47.6675H102.398V46.2238H99.1698V47.6675ZM101.68 46.8755L100.958 54.2629L102.395 54.4033L103.117 47.0158L101.68 46.8755ZM101.677 53.6113H98.6381V55.0549H101.677V53.6113ZM120.918 47.7243L121.312 47.1193L120.918 47.7243ZM123.957 51.3895L123.295 51.6777L123.297 51.6822L123.957 51.3895ZM123.938 62.4992L123.278 62.206L123.277 62.2085L123.938 62.4992ZM120.862 66.2024L121.255 66.8073L121.257 66.8064L120.862 66.2024ZM111.005 66.2404L110.615 66.848L110.622 66.8522L111.005 66.2404ZM107.929 62.5751L107.268 62.8658L107.27 62.8703L107.929 62.5751ZM107.929 51.4655L107.27 51.1704L107.268 51.1748L107.929 51.4655ZM111.024 47.7623L111.419 48.3663L111.423 48.3637L111.024 47.7623ZM112.506 51.4845L113.107 51.8834L113.109 51.8804L112.506 51.4845ZM112.487 62.4612L111.88 62.8525L111.883 62.8571L112.487 62.4612ZM119.38 62.4612L118.777 62.0653L118.774 62.0699L119.38 62.4612ZM119.399 51.4845L118.793 51.8758L118.795 51.8788L119.399 51.4845ZM115.962 47.1357C117.816 47.1357 119.324 47.5476 120.525 48.3292L121.312 47.1193C119.829 46.1538 118.032 45.6921 115.962 45.6921V47.1357ZM120.525 48.3292C121.74 49.1203 122.664 50.2279 123.295 51.6777L124.619 51.1013C123.883 49.4113 122.781 48.0754 121.312 47.1193L120.525 48.3292ZM123.297 51.6822C123.944 53.1407 124.28 54.8853 124.28 56.9348H125.723C125.723 54.7304 125.363 52.7781 124.617 51.0968L123.297 51.6822ZM124.28 56.9348C124.28 58.9691 123.939 60.7204 123.278 62.206L124.598 62.7923C125.355 61.0875 125.723 59.1293 125.723 56.9348H124.28ZM123.277 62.2085C122.633 63.6722 121.696 64.7939 120.466 65.5983L121.257 66.8064C122.736 65.8384 123.85 64.4913 124.599 62.7899L123.277 62.2085ZM120.468 65.5974C119.265 66.38 117.77 66.7909 115.943 66.7909V68.2346C117.99 68.2346 119.774 67.7719 121.255 66.8073L120.468 65.5974ZM115.943 66.7909C114.112 66.7909 112.606 66.391 111.388 65.6286L110.622 66.8522C112.114 67.7862 113.899 68.2346 115.943 68.2346V66.7909ZM111.395 65.6328C110.181 64.8543 109.244 63.7462 108.587 62.28L107.27 62.8703C108.031 64.5692 109.145 65.9046 110.616 66.8479L111.395 65.6328ZM108.589 62.2844C107.942 60.813 107.606 59.0488 107.606 56.9728H106.162C106.162 59.2014 106.523 61.1721 107.268 62.8658L108.589 62.2844ZM107.606 56.9728C107.606 54.9635 107.941 53.2301 108.589 51.7562L107.268 51.1748C106.524 52.866 106.162 54.8042 106.162 56.9728H107.606ZM108.587 51.7606C109.244 50.2947 110.189 49.1715 111.419 48.3663L110.629 47.1582C109.15 48.1255 108.031 49.4711 107.27 51.1704L108.587 51.7606ZM111.423 48.3637C112.639 47.5573 114.139 47.1357 115.962 47.1357V45.6921C113.91 45.6921 112.119 46.1694 110.625 47.1608L111.423 48.3637ZM115.962 48.9965C114.212 48.9965 112.821 49.6874 111.902 51.0886L113.109 51.8804C113.735 50.9267 114.648 50.4402 115.962 50.4402V48.9965ZM111.904 51.0856C111.013 52.4295 110.625 54.4338 110.625 56.9728H112.069C112.069 54.5236 112.454 52.869 113.107 51.8834L111.904 51.0856ZM110.625 56.9728C110.625 59.4998 111.007 61.4991 111.88 62.8525L113.093 62.0699C112.447 61.0684 112.069 59.4088 112.069 56.9728H110.625ZM111.883 62.8571C112.802 64.2583 114.193 64.9492 115.943 64.9492V63.5055C114.629 63.5055 113.716 63.019 113.09 62.0653L111.883 62.8571ZM115.943 64.9492C117.693 64.9492 119.08 64.2578 119.987 62.8525L118.774 62.0699C118.161 63.0194 117.257 63.5055 115.943 63.5055V64.9492ZM119.984 62.8571C120.873 61.5017 121.261 59.4867 121.261 56.9348H119.817C119.817 59.3966 119.432 61.0658 118.777 62.0653L119.984 62.8571ZM121.261 56.9348C121.261 54.4207 120.879 52.4321 120.004 51.0902L118.795 51.8788C119.439 52.8664 119.817 54.5114 119.817 56.9348H121.261ZM120.006 51.0931C119.099 49.6878 117.712 48.9965 115.962 48.9965V50.4402C117.276 50.4402 118.18 50.9263 118.793 51.8758L120.006 51.0931ZM142.477 38.4188L142.557 37.7014L141.755 37.6119V38.4188H142.477ZM146.731 38.8935H147.453V38.2478L146.811 38.1762L146.731 38.8935ZM146.731 67V67.7218H147.453V67H146.731ZM142.99 67L142.274 67.0882L142.352 67.7218H142.99V67ZM142.686 64.5312L143.403 64.443L143.177 62.6135L142.1 64.1094L142.686 64.5312ZM140.236 66.7341L139.89 66.1008L140.236 66.7341ZM132.792 66.2024L132.343 66.7673L132.347 66.7704L132.792 66.2024ZM130.304 62.4992L129.619 62.7274L129.622 62.734L130.304 62.4992ZM130.456 51.5414L131.126 51.8095L131.127 51.8077L130.456 51.5414ZM133.172 47.7813L133.614 48.352L133.172 47.7813ZM140.255 46.9836L139.957 47.6408L139.965 47.6445L140.255 46.9836ZM142.477 48.5979L141.944 49.0839L143.199 50.4625V48.5979H142.477ZM135.204 51.4655L135.801 51.8703L135.803 51.8674L135.204 51.4655ZM134.501 61.1508L133.811 61.362L133.812 61.3643L134.501 61.1508ZM135.925 63.5057L135.469 64.0649L135.476 64.0705L135.925 63.5057ZM140.673 63.4107L140.227 62.8431L140.673 63.4107ZM142.477 61.3977L143.088 61.782L143.199 61.6058V61.3977H142.477ZM142.477 51.9023H143.199V51.6757L143.07 51.4897L142.477 51.9023ZM140.749 50.2691L140.379 50.8891L140.388 50.8943L140.749 50.2691ZM142.397 39.1361L146.651 39.6109L146.811 38.1762L142.557 37.7014L142.397 39.1361ZM146.009 38.8935V67H147.453V38.8935H146.009ZM146.731 66.2782H142.99V67.7218H146.731V66.2782ZM143.706 66.9118L143.403 64.443L141.97 64.6194L142.274 67.0882L143.706 66.9118ZM142.1 64.1094C141.475 64.9786 140.737 65.6375 139.89 66.1008L140.583 67.3675C141.634 66.7926 142.53 65.9828 143.272 64.953L142.1 64.1094ZM139.89 66.1008C139.056 66.5568 138.113 66.7909 137.046 66.7909V68.2346C138.333 68.2346 139.518 67.9496 140.583 67.3675L139.89 66.1008ZM137.046 66.7909C135.45 66.7909 134.199 66.3882 133.237 65.6343L132.347 66.7704C133.613 67.7638 135.199 68.2346 137.046 68.2346V66.7909ZM133.241 65.6375C132.252 64.8509 131.494 63.7401 130.987 62.2644L129.622 62.734C130.203 64.4233 131.103 65.7814 132.343 66.7673L133.241 65.6375ZM130.989 62.2709C130.487 60.7646 130.228 59.0023 130.228 56.9728H128.785C128.785 59.1214 129.058 61.0433 129.619 62.7274L130.989 62.2709ZM130.228 56.9728C130.228 55.0087 130.533 53.2919 131.126 51.8095L129.786 51.2734C129.113 52.9561 128.785 54.8602 128.785 56.9728H130.228ZM131.127 51.8077C131.72 50.314 132.553 49.173 133.614 48.352L132.73 47.2105C131.435 48.2126 130.458 49.5784 129.785 51.2752L131.127 51.8077ZM133.614 48.352C134.65 47.5495 135.908 47.1357 137.426 47.1357V45.6921C135.626 45.6921 134.048 46.1898 132.73 47.2105L133.614 48.352ZM137.426 47.1357C138.388 47.1357 139.228 47.3094 139.957 47.6408L140.554 46.3265C139.612 45.8983 138.565 45.6921 137.426 45.6921V47.1357ZM139.965 47.6445C140.703 47.969 141.362 48.4457 141.944 49.0839L143.011 48.1118C142.301 47.3321 141.478 46.7326 140.546 46.3228L139.965 47.6445ZM143.199 48.5979V38.4188H141.755V48.5979H143.199ZM138.546 48.9585C136.874 48.9585 135.536 49.6739 134.604 51.0636L135.803 51.8674C136.467 50.8769 137.357 50.4022 138.546 50.4022V48.9585ZM134.606 51.0606C133.687 52.4178 133.286 54.4301 133.286 56.9728H134.729C134.729 54.5273 135.126 52.868 135.801 51.8703L134.606 51.0606ZM133.286 56.9728C133.286 58.7205 133.453 60.1917 133.811 61.362L135.191 60.9397C134.891 59.9577 134.729 58.6435 134.729 56.9728H133.286ZM133.812 61.3643C134.167 62.5123 134.703 63.4399 135.469 64.0649L136.382 62.9465C135.907 62.5586 135.494 61.9163 135.191 60.9374L133.812 61.3643ZM135.476 64.0705C136.237 64.6764 137.147 64.9682 138.166 64.9682V63.5245C137.438 63.5245 136.854 63.3225 136.375 62.9409L135.476 64.0705ZM138.166 64.9682C139.279 64.9682 140.274 64.6423 141.119 63.9783L140.227 62.8431C139.654 63.2933 138.978 63.5245 138.166 63.5245V64.9682ZM141.119 63.9783C141.895 63.3686 142.552 62.6351 143.088 61.782L141.866 61.0134C141.415 61.7302 140.869 62.3387 140.227 62.8431L141.119 63.9783ZM143.199 61.3977V51.9023H141.755V61.3977H143.199ZM143.07 51.4897C142.524 50.7056 141.872 50.0835 141.11 49.6438L140.388 50.8943C140.943 51.2143 141.443 51.6809 141.885 52.3148L143.07 51.4897ZM141.119 49.649C140.342 49.1861 139.479 48.9585 138.546 48.9585V50.4022C139.234 50.4022 139.839 50.5671 140.379 50.8891L141.119 49.649ZM171.025 46.9457L171.707 47.1801L172.036 46.2238H171.025V46.9457ZM164.112 67.076L163.429 66.8415L163.429 66.8426L164.112 67.076ZM162.118 71.083L161.528 70.6678L161.525 70.6708L162.118 71.083ZM159.003 73.8937L158.651 73.2639L159.003 73.8937ZM154.294 75.204L153.582 75.3268L153.695 75.9812L154.357 75.9231L154.294 75.204ZM153.743 72.0136L153.63 71.3007L152.907 71.4155L153.032 72.1364L153.743 72.0136ZM156.971 71.064L156.649 70.4183L156.637 70.4246L156.971 71.064ZM158.89 69.4498L158.303 69.0292L158.298 69.0366L158.89 69.4498ZM160.162 67L160.836 67.2573L161.21 66.2782H160.162V67ZM158.719 67L158.035 67.2306L158.2 67.7218H158.719V67ZM151.958 46.9457V46.2238H150.953L151.274 47.1763L151.958 46.9457ZM156.478 46.9457L157.17 46.7411L157.017 46.2238H156.478V46.9457ZM161.529 64.0374L160.837 64.242L161.524 66.5667L162.221 64.2448L161.529 64.0374ZM166.657 46.9457V46.2238H166.12L165.965 46.7382L166.657 46.9457ZM170.342 46.7112L163.429 66.8415L164.795 67.3104L171.707 47.1801L170.342 46.7112ZM163.429 66.8426C162.929 68.306 162.293 69.5788 161.528 70.6678L162.708 71.4983C163.563 70.2831 164.257 68.8844 164.795 67.3093L163.429 66.8426ZM161.525 70.6708C160.779 71.7438 159.824 72.6071 158.651 73.2639L159.356 74.5235C160.715 73.7623 161.836 72.7519 162.711 71.4952L161.525 70.6708ZM158.651 73.2639C157.496 73.9105 156.031 74.3268 154.231 74.485L154.357 75.9231C156.303 75.7521 157.979 75.2948 159.356 74.5235L158.651 73.2639ZM155.005 75.0813L154.454 71.8908L153.032 72.1364L153.582 75.3268L155.005 75.0813ZM153.856 72.7265C155.252 72.5047 156.413 72.1714 157.306 71.7035L156.637 70.4246C155.935 70.7923 154.943 71.092 153.63 71.3007L153.856 72.7265ZM157.294 71.7097C158.2 71.2566 158.937 70.643 159.481 69.863L158.298 69.0366C157.905 69.5987 157.363 70.0612 156.649 70.4184L157.294 71.7097ZM159.476 69.8704C160.001 69.1384 160.452 68.2639 160.836 67.2573L159.487 66.7427C159.137 67.6605 158.74 68.4193 158.303 69.0292L159.476 69.8704ZM160.162 66.2782H158.719V67.7218H160.162V66.2782ZM159.403 66.7694L152.642 46.7151L151.274 47.1763L158.035 67.2306L159.403 66.7694ZM151.958 47.6675H156.478V46.2238H151.958V47.6675ZM155.785 47.1503L160.837 64.242L162.221 63.8328L157.17 46.7411L155.785 47.1503ZM162.221 64.2448L167.348 47.1531L165.965 46.7382L160.838 63.83L162.221 64.2448ZM166.657 47.6675H171.025V46.2238H166.657V47.6675Z" fill="#D64334" mask="url(#path-1-outside-1_1071_51)"/>
<path d="M78.0668 63.8095L77.463 64.2052L77.4695 64.2148L78.0668 63.8095ZM79.2253 64.6072L79.9109 64.8327L80.1356 64.1497L79.4535 63.9224L79.2253 64.6072ZM78.2757 67.4938L78.193 68.2108L78.7775 68.2783L78.9614 67.7193L78.2757 67.4938ZM74.1167 64.7211L74.7822 64.4414L74.3099 63.3176L73.5516 64.2721L74.1167 64.7211ZM71.3251 66.8101L71.6022 67.4766L71.3251 66.8101ZM62.8931 65.8036L62.3883 66.3195L62.3939 66.325L62.8931 65.8036ZM63.5958 56.4031L63.1849 55.8096L63.5958 56.4031ZM73.528 54.6939V55.4158H74.2498V54.6939H73.528ZM72.3506 50.5919L71.922 51.1728L71.9266 51.1761L72.3506 50.5919ZM66.6723 50.0032L66.7972 50.7142L66.8065 50.7124L66.6723 50.0032ZM63.7287 50.7818L63.047 51.0191L63.2838 51.6994L63.9646 51.464L63.7287 50.7818ZM62.6842 47.7813L62.4315 47.1051L61.7705 47.3521L62.0025 48.0186L62.6842 47.7813ZM66.3685 46.7557L66.4956 47.4663L66.5028 47.465L66.3685 46.7557ZM75.712 48.1991L75.2279 48.7346L75.2305 48.7369L75.712 48.1991ZM73.528 61.7775L74.1428 62.1558L74.2498 61.9818V61.7775H73.528ZM73.528 57.3526H74.2498V56.6308H73.528V57.3526ZM66.8812 58.3592L67.3197 58.9326L67.3249 58.9285L66.8812 58.3592ZM66.4444 63.5437L65.934 64.0541L65.9397 64.0597L65.9455 64.0653L66.4444 63.5437ZM76.9842 62.0814C76.9842 62.9105 77.1057 63.6597 77.463 64.2051L78.6706 63.414C78.5468 63.225 78.4278 62.8221 78.4278 62.0814H76.9842ZM77.4695 64.2148C77.8231 64.7359 78.3613 65.0801 78.997 65.2919L79.4535 63.9224C79.0257 63.7798 78.7916 63.5921 78.6641 63.4042L77.4695 64.2148ZM78.5396 64.3816L77.59 67.2682L78.9614 67.7193L79.9109 64.8327L78.5396 64.3816ZM78.3585 66.7767C77.4541 66.6723 76.7097 66.427 76.1056 66.0601L75.3563 67.2942C76.1701 67.7883 77.1223 68.0873 78.193 68.2108L78.3585 66.7767ZM76.1056 66.0601C75.5447 65.7196 75.0991 65.1955 74.7822 64.4414L73.4513 65.0008C73.8687 65.9939 74.4992 66.7738 75.3563 67.2942L76.1056 66.0601ZM73.5516 64.2721C72.8959 65.0973 72.0658 65.7204 71.048 66.1436L71.6022 67.4766C72.8379 66.9629 73.8689 66.1934 74.6819 65.1701L73.5516 64.2721ZM71.048 66.1436C70.0132 66.5738 68.905 66.7909 67.7168 66.7909V68.2346C69.086 68.2346 70.3834 67.9833 71.6022 67.4766L71.048 66.1436ZM67.7168 66.7909C65.8321 66.7909 64.4187 66.2649 63.3923 65.2822L62.3939 66.325C63.7477 67.6211 65.5501 68.2346 67.7168 68.2346V66.7909ZM63.398 65.2876C62.3778 64.2895 61.8488 62.9783 61.8488 61.2838H60.4051C60.4051 63.3115 61.0535 65.0135 62.3883 66.3195L63.398 65.2876ZM61.8488 61.2838C61.8488 59.3905 62.5682 57.9925 64.0067 56.9966L63.1849 55.8096C61.3317 57.0926 60.4051 58.9483 60.4051 61.2838H61.8488ZM64.0067 56.9966C65.4833 55.9743 67.6706 55.4158 70.6604 55.4158V53.9721C67.5225 53.9721 65 54.553 63.1849 55.8096L64.0067 56.9966ZM70.6604 55.4158H73.528V53.9721H70.6604V55.4158ZM74.2498 54.6939V53.3836H72.8062V54.6939H74.2498ZM74.2498 53.3836C74.2498 51.9446 73.8053 50.7559 72.7746 50.0077L71.9266 51.1761C72.4657 51.5674 72.8062 52.2397 72.8062 53.3836H74.2498ZM72.7791 50.011C71.8361 49.3154 70.5671 49.0155 69.0652 49.0155V50.4591C70.3992 50.4591 71.3205 50.729 71.9221 51.1728L72.7791 50.011ZM69.0652 49.0155C68.3467 49.0155 67.5014 49.1117 66.5381 49.2939L66.8065 50.7124C67.7169 50.5402 68.4669 50.4591 69.0652 50.4591V49.0155ZM66.5474 49.2922C65.568 49.4643 64.5496 49.7343 63.4929 50.0996L63.9646 51.464C64.9588 51.1203 65.9028 50.8713 66.7972 50.7141L66.5474 49.2922ZM64.4104 50.5445L63.3659 47.544L62.0025 48.0186L63.047 51.0191L64.4104 50.5445ZM62.9369 48.4574C64.1534 48.0028 65.3395 47.6732 66.4956 47.4663L66.2413 46.0452C64.9919 46.2688 63.7218 46.6229 62.4315 47.1051L62.9369 48.4574ZM66.5028 47.465C67.6695 47.2439 68.7381 47.1357 69.7108 47.1357V45.6921C68.6326 45.6921 67.4729 45.8118 66.2341 46.0465L66.5028 47.465ZM69.7108 47.1357C72.305 47.1357 74.0977 47.713 75.2279 48.7346L76.196 47.6635C74.6928 46.3049 72.4848 45.6921 69.7108 45.6921V47.1357ZM75.2305 48.7369C76.3794 49.7654 76.9842 51.2003 76.9842 53.1367H78.4278C78.4278 50.8698 77.7032 49.0129 76.1934 47.6613L75.2305 48.7369ZM76.9842 53.1367V62.0814H78.4278V53.1367H76.9842ZM69.0082 65.1011C70.0026 65.1011 70.9639 64.8365 71.8837 64.327L71.1842 63.0641C70.4582 63.4663 69.7356 63.6574 69.0082 63.6574V65.1011ZM71.8837 64.327C72.8183 63.8094 73.5731 63.0815 74.1428 62.1558L72.9132 61.3992C72.4701 62.1194 71.8955 62.6702 71.1842 63.0641L71.8837 64.327ZM74.2498 61.7775V57.3526H72.8062V61.7775H74.2498ZM73.528 56.6308H71.1731V58.0745H73.528V56.6308ZM71.1731 56.6308C69.1293 56.6308 67.494 56.9663 66.4375 57.7898L67.3249 58.9285C67.9902 58.41 69.2163 58.0745 71.1731 58.0745V56.6308ZM66.4427 57.7858C65.3883 58.5921 64.868 59.7237 64.868 61.0938H66.3117C66.3117 60.1345 66.6523 59.4429 67.3197 58.9326L66.4427 57.7858ZM64.868 61.0938C64.868 62.2853 65.1898 63.3099 65.934 64.0541L66.9548 63.0333C66.5596 62.638 66.3117 62.0294 66.3117 61.0938H64.868ZM65.9455 64.0653C66.7079 64.7945 67.7701 65.1011 69.0082 65.1011V63.6574C67.9926 63.6574 67.3457 63.4069 66.9434 63.022L65.9455 64.0653ZM85.3445 67H84.6226V67.7218H85.3445V67ZM85.3445 63.9615V63.2396H84.6226V63.9615H85.3445ZM88.288 63.9615V64.6833H89.0099V63.9615H88.288ZM88.288 49.9652H89.0099V49.2434H88.288V49.9652ZM85.3445 49.9652H84.6226V50.687H85.3445V49.9652ZM85.3445 46.9457V46.2238H84.6226V46.9457H85.3445ZM91.5355 46.9457L92.2474 46.8265L92.1466 46.2238H91.5355V46.9457ZM92.3141 51.5984L91.6022 51.7176L91.999 54.0888L92.9739 51.8911L92.3141 51.5984ZM95.0868 47.7623L95.5353 48.3278L95.5361 48.3272L95.0868 47.7623ZM100.974 46.5848L100.821 47.2904L100.832 47.2927L100.843 47.2947L100.974 46.5848ZM102.398 46.9457L103.08 47.1835L103.323 46.4867L102.621 46.259L102.398 46.9457ZM101.126 50.5919L100.93 51.2868L101.584 51.4705L101.807 50.8297L101.126 50.5919ZM99.9864 50.345L99.8595 51.0556L99.8719 51.0578L99.8843 51.0596L99.9864 50.345ZM95.0298 51.8833L94.5134 51.3789L94.5104 51.382L95.0298 51.8833ZM92.542 56.517L91.8513 56.3072L91.8202 56.4098V56.517H92.542ZM92.542 63.9615H91.8202V64.6833H92.542V63.9615ZM96.5871 63.9615H97.3089V63.2396H96.5871V63.9615ZM96.5871 67V67.7218H97.3089V67H96.5871ZM98.6381 54.3331H97.9162V55.0549H98.6381V54.3331ZM98.6381 49.3955L97.9327 49.2424L97.9162 49.318V49.3955H98.6381ZM99.1698 46.9457V46.2238H98.5878L98.4644 46.7925L99.1698 46.9457ZM102.398 46.9457L103.117 47.0158L103.194 46.2238H102.398V46.9457ZM101.677 54.3331V55.0549H102.331L102.395 54.4033L101.677 54.3331ZM86.0663 67V63.9615H84.6226V67H86.0663ZM85.3445 64.6833H88.288V63.2396H85.3445V64.6833ZM89.0099 63.9615V49.9652H87.5662V63.9615H89.0099ZM88.288 49.2434H85.3445V50.687H88.288V49.2434ZM86.0663 49.9652V46.9457H84.6226V49.9652H86.0663ZM85.3445 47.6675H91.5355V46.2238H85.3445V47.6675ZM90.8236 47.0648L91.6022 51.7176L93.026 51.4793L92.2474 46.8265L90.8236 47.0648ZM92.9739 51.8911C93.6877 50.282 94.5492 49.1099 95.5353 48.3278L94.6382 47.1967C93.4214 48.1618 92.4344 49.5471 91.6543 51.3057L92.9739 51.8911ZM95.5361 48.3272C96.4956 47.564 97.7566 47.1547 99.3787 47.1547V45.7111C97.5065 45.7111 95.9062 46.1881 94.6374 47.1974L95.5361 48.3272ZM99.3787 47.1547C99.9342 47.1547 100.413 47.2021 100.821 47.2904L101.126 45.8793C100.598 45.765 100.013 45.7111 99.3787 45.7111V47.1547ZM100.843 47.2947C101.293 47.3776 101.737 47.49 102.176 47.6323L102.621 46.259C102.123 46.0974 101.617 45.9693 101.105 45.8749L100.843 47.2947ZM101.717 46.7078L100.444 50.3541L101.807 50.8297L103.08 47.1835L101.717 46.7078ZM101.321 49.897C100.891 49.7759 100.479 49.6863 100.088 49.6304L99.8843 51.0596C100.202 51.105 100.551 51.18 100.93 51.2868L101.321 49.897ZM100.113 49.6344C99.7098 49.5624 99.274 49.5282 98.809 49.5282V50.9719C99.2049 50.9719 99.5541 51.0011 99.8595 51.0556L100.113 49.6344ZM98.809 49.5282C97.149 49.5282 95.7058 50.1581 94.5134 51.3789L95.5462 52.3877C96.4807 51.4308 97.557 50.9719 98.809 50.9719V49.5282ZM94.5104 51.382C93.3558 52.5783 92.4803 54.237 91.8513 56.3072L93.2327 56.7269C93.8191 54.7964 94.6021 53.3659 95.5492 52.3846L94.5104 51.382ZM91.8202 56.517V63.9615H93.2638V56.517H91.8202ZM92.542 64.6833H96.5871V63.2396H92.542V64.6833ZM95.8652 63.9615V67H97.3089V63.9615H95.8652ZM96.5871 66.2782H85.3445V67.7218H96.5871V66.2782ZM99.3599 54.3331V49.3955H97.9162V54.3331H99.3599ZM99.3435 49.5486L99.8752 47.0988L98.4644 46.7925L97.9327 49.2424L99.3435 49.5486ZM99.1698 47.6675H102.398V46.2238H99.1698V47.6675ZM101.68 46.8755L100.958 54.2629L102.395 54.4033L103.117 47.0158L101.68 46.8755ZM101.677 53.6113H98.6381V55.0549H101.677V53.6113ZM120.918 47.7243L121.312 47.1193L120.918 47.7243ZM123.957 51.3895L123.295 51.6777L123.297 51.6822L123.957 51.3895ZM123.938 62.4992L123.278 62.206L123.277 62.2085L123.938 62.4992ZM120.862 66.2024L121.255 66.8073L121.257 66.8064L120.862 66.2024ZM111.005 66.2404L110.615 66.848L110.622 66.8522L111.005 66.2404ZM107.929 62.5751L107.268 62.8658L107.27 62.8703L107.929 62.5751ZM107.929 51.4655L107.27 51.1704L107.268 51.1748L107.929 51.4655ZM111.024 47.7623L111.419 48.3663L111.423 48.3637L111.024 47.7623ZM112.506 51.4845L113.107 51.8834L113.109 51.8804L112.506 51.4845ZM112.487 62.4612L111.88 62.8525L111.883 62.8571L112.487 62.4612ZM119.38 62.4612L118.777 62.0653L118.774 62.0699L119.38 62.4612ZM119.399 51.4845L118.793 51.8758L118.795 51.8788L119.399 51.4845ZM115.962 47.1357C117.816 47.1357 119.324 47.5476 120.525 48.3292L121.312 47.1193C119.829 46.1538 118.032 45.6921 115.962 45.6921V47.1357ZM120.525 48.3292C121.74 49.1203 122.664 50.2279 123.295 51.6777L124.619 51.1013C123.883 49.4113 122.781 48.0754 121.312 47.1193L120.525 48.3292ZM123.297 51.6822C123.944 53.1407 124.28 54.8853 124.28 56.9348H125.723C125.723 54.7304 125.363 52.7781 124.617 51.0968L123.297 51.6822ZM124.28 56.9348C124.28 58.9691 123.939 60.7204 123.278 62.206L124.598 62.7923C125.355 61.0875 125.723 59.1293 125.723 56.9348H124.28ZM123.277 62.2085C122.633 63.6722 121.696 64.7939 120.466 65.5983L121.257 66.8064C122.736 65.8384 123.85 64.4913 124.599 62.7899L123.277 62.2085ZM120.468 65.5974C119.265 66.38 117.77 66.7909 115.943 66.7909V68.2346C117.99 68.2346 119.774 67.7719 121.255 66.8073L120.468 65.5974ZM115.943 66.7909C114.112 66.7909 112.606 66.391 111.388 65.6286L110.622 66.8522C112.114 67.7862 113.899 68.2346 115.943 68.2346V66.7909ZM111.395 65.6328C110.181 64.8543 109.244 63.7462 108.587 62.28L107.27 62.8703C108.031 64.5692 109.145 65.9046 110.616 66.8479L111.395 65.6328ZM108.589 62.2844C107.942 60.813 107.606 59.0488 107.606 56.9728H106.162C106.162 59.2014 106.523 61.1721 107.268 62.8658L108.589 62.2844ZM107.606 56.9728C107.606 54.9635 107.941 53.2301 108.589 51.7562L107.268 51.1748C106.524 52.866 106.162 54.8042 106.162 56.9728H107.606ZM108.587 51.7606C109.244 50.2947 110.189 49.1715 111.419 48.3663L110.629 47.1582C109.15 48.1255 108.031 49.4711 107.27 51.1704L108.587 51.7606ZM111.423 48.3637C112.639 47.5573 114.139 47.1357 115.962 47.1357V45.6921C113.91 45.6921 112.119 46.1694 110.625 47.1608L111.423 48.3637ZM115.962 48.9965C114.212 48.9965 112.821 49.6874 111.902 51.0886L113.109 51.8804C113.735 50.9267 114.648 50.4402 115.962 50.4402V48.9965ZM111.904 51.0856C111.013 52.4295 110.625 54.4338 110.625 56.9728H112.069C112.069 54.5236 112.454 52.869 113.107 51.8834L111.904 51.0856ZM110.625 56.9728C110.625 59.4998 111.007 61.4991 111.88 62.8525L113.093 62.0699C112.447 61.0684 112.069 59.4088 112.069 56.9728H110.625ZM111.883 62.8571C112.802 64.2583 114.193 64.9492 115.943 64.9492V63.5055C114.629 63.5055 113.716 63.019 113.09 62.0653L111.883 62.8571ZM115.943 64.9492C117.693 64.9492 119.08 64.2578 119.987 62.8525L118.774 62.0699C118.161 63.0194 117.257 63.5055 115.943 63.5055V64.9492ZM119.984 62.8571C120.873 61.5017 121.261 59.4867 121.261 56.9348H119.817C119.817 59.3966 119.432 61.0658 118.777 62.0653L119.984 62.8571ZM121.261 56.9348C121.261 54.4207 120.879 52.4321 120.004 51.0902L118.795 51.8788C119.439 52.8664 119.817 54.5114 119.817 56.9348H121.261ZM120.006 51.0931C119.099 49.6878 117.712 48.9965 115.962 48.9965V50.4402C117.276 50.4402 118.18 50.9263 118.793 51.8758L120.006 51.0931ZM142.477 38.4188L142.557 37.7014L141.755 37.6119V38.4188H142.477ZM146.731 38.8935H147.453V38.2478L146.811 38.1762L146.731 38.8935ZM146.731 67V67.7218H147.453V67H146.731ZM142.99 67L142.274 67.0882L142.352 67.7218H142.99V67ZM142.686 64.5312L143.403 64.443L143.177 62.6135L142.1 64.1094L142.686 64.5312ZM140.236 66.7341L139.89 66.1008L140.236 66.7341ZM132.792 66.2024L132.343 66.7673L132.347 66.7704L132.792 66.2024ZM130.304 62.4992L129.619 62.7274L129.622 62.734L130.304 62.4992ZM130.456 51.5414L131.126 51.8095L131.127 51.8077L130.456 51.5414ZM133.172 47.7813L133.614 48.352L133.172 47.7813ZM140.255 46.9836L139.957 47.6408L139.965 47.6445L140.255 46.9836ZM142.477 48.5979L141.944 49.0839L143.199 50.4625V48.5979H142.477ZM135.204 51.4655L135.801 51.8703L135.803 51.8674L135.204 51.4655ZM134.501 61.1508L133.811 61.362L133.812 61.3643L134.501 61.1508ZM135.925 63.5057L135.469 64.0649L135.476 64.0705L135.925 63.5057ZM140.673 63.4107L140.227 62.8431L140.673 63.4107ZM142.477 61.3977L143.088 61.782L143.199 61.6058V61.3977H142.477ZM142.477 51.9023H143.199V51.6757L143.07 51.4897L142.477 51.9023ZM140.749 50.2691L140.379 50.8891L140.388 50.8943L140.749 50.2691ZM142.397 39.1361L146.651 39.6109L146.811 38.1762L142.557 37.7014L142.397 39.1361ZM146.009 38.8935V67H147.453V38.8935H146.009ZM146.731 66.2782H142.99V67.7218H146.731V66.2782ZM143.706 66.9118L143.403 64.443L141.97 64.6194L142.274 67.0882L143.706 66.9118ZM142.1 64.1094C141.475 64.9786 140.737 65.6375 139.89 66.1008L140.583 67.3675C141.634 66.7926 142.53 65.9828 143.272 64.953L142.1 64.1094ZM139.89 66.1008C139.056 66.5568 138.113 66.7909 137.046 66.7909V68.2346C138.333 68.2346 139.518 67.9496 140.583 67.3675L139.89 66.1008ZM137.046 66.7909C135.45 66.7909 134.199 66.3882 133.237 65.6343L132.347 66.7704C133.613 67.7638 135.199 68.2346 137.046 68.2346V66.7909ZM133.241 65.6375C132.252 64.8509 131.494 63.7401 130.987 62.2644L129.622 62.734C130.203 64.4233 131.103 65.7814 132.343 66.7673L133.241 65.6375ZM130.989 62.2709C130.487 60.7646 130.228 59.0023 130.228 56.9728H128.785C128.785 59.1214 129.058 61.0433 129.619 62.7274L130.989 62.2709ZM130.228 56.9728C130.228 55.0087 130.533 53.2919 131.126 51.8095L129.786 51.2734C129.113 52.9561 128.785 54.8602 128.785 56.9728H130.228ZM131.127 51.8077C131.72 50.314 132.553 49.173 133.614 48.352L132.73 47.2105C131.435 48.2126 130.458 49.5784 129.785 51.2752L131.127 51.8077ZM133.614 48.352C134.65 47.5495 135.908 47.1357 137.426 47.1357V45.6921C135.626 45.6921 134.048 46.1898 132.73 47.2105L133.614 48.352ZM137.426 47.1357C138.388 47.1357 139.228 47.3094 139.957 47.6408L140.554 46.3265C139.612 45.8983 138.565 45.6921 137.426 45.6921V47.1357ZM139.965 47.6445C140.703 47.969 141.362 48.4457 141.944 49.0839L143.011 48.1118C142.301 47.3321 141.478 46.7326 140.546 46.3228L139.965 47.6445ZM143.199 48.5979V38.4188H141.755V48.5979H143.199ZM138.546 48.9585C136.874 48.9585 135.536 49.6739 134.604 51.0636L135.803 51.8674C136.467 50.8769 137.357 50.4022 138.546 50.4022V48.9585ZM134.606 51.0606C133.687 52.4178 133.286 54.4301 133.286 56.9728H134.729C134.729 54.5273 135.126 52.868 135.801 51.8703L134.606 51.0606ZM133.286 56.9728C133.286 58.7205 133.453 60.1917 133.811 61.362L135.191 60.9397C134.891 59.9577 134.729 58.6435 134.729 56.9728H133.286ZM133.812 61.3643C134.167 62.5123 134.703 63.4399 135.469 64.0649L136.382 62.9465C135.907 62.5586 135.494 61.9163 135.191 60.9374L133.812 61.3643ZM135.476 64.0705C136.237 64.6764 137.147 64.9682 138.166 64.9682V63.5245C137.438 63.5245 136.854 63.3225 136.375 62.9409L135.476 64.0705ZM138.166 64.9682C139.279 64.9682 140.274 64.6423 141.119 63.9783L140.227 62.8431C139.654 63.2933 138.978 63.5245 138.166 63.5245V64.9682ZM141.119 63.9783C141.895 63.3686 142.552 62.6351 143.088 61.782L141.866 61.0134C141.415 61.7302 140.869 62.3387 140.227 62.8431L141.119 63.9783ZM143.199 61.3977V51.9023H141.755V61.3977H143.199ZM143.07 51.4897C142.524 50.7056 141.872 50.0835 141.11 49.6438L140.388 50.8943C140.943 51.2143 141.443 51.6809 141.885 52.3148L143.07 51.4897ZM141.119 49.649C140.342 49.1861 139.479 48.9585 138.546 48.9585V50.4022C139.234 50.4022 139.839 50.5671 140.379 50.8891L141.119 49.649ZM171.025 46.9457L171.707 47.1801L172.036 46.2238H171.025V46.9457ZM164.112 67.076L163.429 66.8415L163.429 66.8426L164.112 67.076ZM162.118 71.083L161.528 70.6678L161.525 70.6708L162.118 71.083ZM159.003 73.8937L158.651 73.2639L159.003 73.8937ZM154.294 75.204L153.582 75.3268L153.695 75.9812L154.357 75.9231L154.294 75.204ZM153.743 72.0136L153.63 71.3007L152.907 71.4155L153.032 72.1364L153.743 72.0136ZM156.971 71.064L156.649 70.4183L156.637 70.4246L156.971 71.064ZM158.89 69.4498L158.303 69.0292L158.298 69.0366L158.89 69.4498ZM160.162 67L160.836 67.2573L161.21 66.2782H160.162V67ZM158.719 67L158.035 67.2306L158.2 67.7218H158.719V67ZM151.958 46.9457V46.2238H150.953L151.274 47.1763L151.958 46.9457ZM156.478 46.9457L157.17 46.7411L157.017 46.2238H156.478V46.9457ZM161.529 64.0374L160.837 64.242L161.524 66.5667L162.221 64.2448L161.529 64.0374ZM166.657 46.9457V46.2238H166.12L165.965 46.7382L166.657 46.9457ZM170.342 46.7112L163.429 66.8415L164.795 67.3104L171.707 47.1801L170.342 46.7112ZM163.429 66.8426C162.929 68.306 162.293 69.5788 161.528 70.6678L162.708 71.4983C163.563 70.2831 164.257 68.8844 164.795 67.3093L163.429 66.8426ZM161.525 70.6708C160.779 71.7438 159.824 72.6071 158.651 73.2639L159.356 74.5235C160.715 73.7623 161.836 72.7519 162.711 71.4952L161.525 70.6708ZM158.651 73.2639C157.496 73.9105 156.031 74.3268 154.231 74.485L154.357 75.9231C156.303 75.7521 157.979 75.2948 159.356 74.5235L158.651 73.2639ZM155.005 75.0813L154.454 71.8908L153.032 72.1364L153.582 75.3268L155.005 75.0813ZM153.856 72.7265C155.252 72.5047 156.413 72.1714 157.306 71.7035L156.637 70.4246C155.935 70.7923 154.943 71.092 153.63 71.3007L153.856 72.7265ZM157.294 71.7097C158.2 71.2566 158.937 70.643 159.481 69.863L158.298 69.0366C157.905 69.5987 157.363 70.0612 156.649 70.4184L157.294 71.7097ZM159.476 69.8704C160.001 69.1384 160.452 68.2639 160.836 67.2573L159.487 66.7427C159.137 67.6605 158.74 68.4193 158.303 69.0292L159.476 69.8704ZM160.162 66.2782H158.719V67.7218H160.162V66.2782ZM159.403 66.7694L152.642 46.7151L151.274 47.1763L158.035 67.2306L159.403 66.7694ZM151.958 47.6675H156.478V46.2238H151.958V47.6675ZM155.785 47.1503L160.837 64.242L162.221 63.8328L157.17 46.7411L155.785 47.1503ZM162.221 64.2448L167.348 47.1531L165.965 46.7382L160.838 63.83L162.221 64.2448ZM166.657 47.6675H171.025V46.2238H166.657V47.6675Z" fill="#D64334" mask="url(#path-1-outside-1_1071_51)"/>
<path d="M8 67.8926C5.68593 67.8926 3.96691 67.562 2.84293 66.9008C1.71895 66.1735 0.991672 65.3802 0.661091 64.5206C0.330509 63.6611 0.165218 63 0.165218 62.5371C0.165218 61.6776 0.462742 60.9504 1.05779 60.3553C1.65284 59.7603 2.47929 59.4627 3.53715 59.4627C4.06608 59.4627 4.56195 59.628 5.02477 59.9586C5.42146 60.2231 5.61981 60.6528 5.61981 61.2479C5.61981 61.909 5.38841 62.4049 4.92559 62.7355C4.46278 63 3.93385 63.1322 3.3388 63.1322C2.87599 63.1322 2.47929 63.0991 2.14871 63.033C1.81813 62.9008 1.65284 62.8347 1.65284 62.8347C1.65284 63.6942 2.08259 64.5868 2.9421 65.5124C3.80161 66.3719 5.25617 66.8017 7.30578 66.8017C10.3471 66.8017 13.124 65.9421 15.6364 64.2231C18.1489 62.438 20.529 60.157 22.777 57.3801C25.0249 54.6032 27.2398 51.628 29.4217 48.4544C31.6035 45.2808 33.8845 42.2394 36.2647 39.3303C39.4383 35.4295 42.678 31.7931 45.9838 28.4211C49.2896 24.9831 52.6616 22.0409 56.0996 19.5946C59.5377 17.0822 63.0418 15.3301 66.6121 14.3384C67.141 14.2061 67.4386 14.3053 67.5047 14.6359C67.5708 14.9665 67.3394 15.1979 66.8105 15.3301C63.9674 16.1235 61.1906 17.6442 58.4798 19.8921C55.769 22.1401 53.0913 24.8839 50.4467 28.1236C47.8681 31.2972 45.2565 34.7022 42.6119 38.3386C40.0333 41.9089 37.3887 45.4461 34.6779 48.9502C32.0333 52.4544 29.2894 55.628 26.4464 58.471C23.6034 61.314 20.6613 63.595 17.6199 65.314C14.5786 67.0331 11.3719 67.8926 8 67.8926ZM43.1078 46.1734C39.2069 46.1734 36.1655 45.6444 33.9837 44.5866C31.8019 43.5287 30.7109 42.1072 30.7109 40.3221C30.7109 39.3964 31.0085 38.6692 31.6035 38.1402C32.1986 37.5452 32.8597 37.1485 33.587 36.9501C34.3804 36.6857 35.0085 36.5534 35.4713 36.5534C35.868 36.5534 36.0664 36.6857 36.0664 36.9501C36.0664 37.1485 35.9011 37.2807 35.5705 37.3468C34.711 37.4791 33.9176 37.9088 33.1903 38.6361C32.5291 39.2973 32.1986 39.9254 32.1986 40.5204C32.1986 41.3799 33.025 42.3717 34.6779 43.4957C36.397 44.6196 39.0416 45.1816 42.6119 45.1816C44.397 45.1816 46.4466 44.7849 48.7607 43.9915C51.0748 43.132 53.2897 41.8758 55.4054 40.2229C57.5872 38.5039 59.3724 36.4212 60.7608 33.9749C62.1492 31.4625 62.8435 28.5534 62.8435 25.2476C62.8435 21.545 61.1906 18.9334 57.8847 17.4128C54.6451 15.826 50.1822 15.0326 44.4962 15.0326C39.8019 15.0326 35.3391 15.7268 31.1076 17.1153C26.8762 18.5037 23.1076 20.2888 19.8018 22.4707C16.5621 24.6525 13.9835 26.9996 12.0662 29.5121C10.2149 32.0245 9.28927 34.4047 9.28927 36.6526C9.28927 38.9006 9.8182 40.5204 10.8761 41.5122C12 42.5039 13.3224 42.9998 14.843 42.9998C16.6943 42.9998 18.5455 42.4378 20.3968 41.3138C22.3142 40.1237 24.0993 38.6361 25.7522 36.851C27.4051 34.9997 28.8928 33.0823 30.2151 31.0988C31.5374 29.0492 32.5953 27.1649 33.3887 25.4459C34.1821 23.7269 34.6118 22.4046 34.6779 21.4789C34.744 20.8178 34.8763 20.4872 35.0746 20.4872C35.3391 20.4872 35.5044 20.7186 35.5705 21.1814C35.7688 23.231 35.4052 25.5781 34.4796 28.2228C33.6201 30.8013 32.2647 33.3137 30.4134 35.76C28.6283 38.1402 26.4134 40.1237 23.7687 41.7105C21.1241 43.2973 18.1819 44.0907 14.9422 44.0907C12.8926 44.0907 11.2397 43.4626 9.98349 42.2064C8.72728 40.8841 8.09917 38.9997 8.09917 36.5534C8.09917 34.1733 9.05786 31.6939 10.9752 29.1154C12.8926 26.4707 15.5373 24.0244 18.9092 21.7764C22.2811 19.5285 26.1489 17.7103 30.5126 16.3219C34.9424 14.8673 39.6036 14.14 44.4962 14.14C50.2483 14.14 54.7773 14.8012 58.0831 16.1235C61.455 17.4458 63.8352 19.1979 65.2237 21.3798C66.6782 23.4955 67.4055 25.7434 67.4055 28.1236C67.4055 29.9749 66.7774 31.9584 65.5212 34.0741C64.3311 36.1898 62.6451 38.1733 60.4633 40.0245C58.2814 41.8097 55.7029 43.2973 52.7277 44.4874C49.8186 45.6114 46.6119 46.1734 43.1078 46.1734Z" fill="#D64334"/>
</svg>
