<svg width="362" height="532" viewBox="0 0 362 532" fill="none" xmlns="http://www.w3.org/2000/svg">
<rect x="27" y="40" width="308" height="430" rx="153.5" fill="#F3DEBF"/>
<rect x="42" y="58" width="278.517" height="394" rx="139.259" fill="#397C5B"/>
<rect x="72" y="89" width="217" height="332" rx="104.204" stroke="#282202" stroke-width="14"/>
<path d="M27 0L31.773 22.227L54 27L31.773 31.773L27 54L22.227 31.773L0 27L22.227 22.227L27 0Z" fill="#EF4C3B"/>
<path d="M27 0L31.773 22.227L54 27L31.773 31.773L27 54L22.227 31.773L0 27L22.227 22.227L27 0Z" fill="#EF4C3B"/>
<path d="M27 0L31.773 22.227L54 27L31.773 31.773L27 54L22.227 31.773L0 27L22.227 22.227L27 0Z" fill="#EF4C3B"/>
<path d="M335 4L339.773 26.227L362 31L339.773 35.773L335 58L330.227 35.773L308 31L330.227 26.227L335 4Z" fill="#EF4C3B"/>
<path d="M335 4L339.773 26.227L362 31L339.773 35.773L335 58L330.227 35.773L308 31L330.227 26.227L335 4Z" fill="#EF4C3B"/>
<path d="M335 4L339.773 26.227L362 31L339.773 35.773L335 58L330.227 35.773L308 31L330.227 26.227L335 4Z" fill="#EF4C3B"/>
<path d="M27 474L31.773 496.227L54 501L31.773 505.773L27 528L22.227 505.773L0 501L22.227 496.227L27 474Z" fill="#EF4C3B"/>
<path d="M27 474L31.773 496.227L54 501L31.773 505.773L27 528L22.227 505.773L0 501L22.227 496.227L27 474Z" fill="#EF4C3B"/>
<path d="M27 474L31.773 496.227L54 501L31.773 505.773L27 528L22.227 505.773L0 501L22.227 496.227L27 474Z" fill="#EF4C3B"/>
<path d="M335 478L339.773 500.227L362 505L339.773 509.773L335 532L330.227 509.773L308 505L330.227 500.227L335 478Z" fill="#EF4C3B"/>
<path d="M335 478L339.773 500.227L362 505L339.773 509.773L335 532L330.227 509.773L308 505L330.227 500.227L335 478Z" fill="#EF4C3B"/>
<path d="M335 478L339.773 500.227L362 505L339.773 509.773L335 532L330.227 509.773L308 505L330.227 500.227L335 478Z" fill="#EF4C3B"/>
</svg>
