<svg width="348" height="86" viewBox="0 0 348 86" fill="none" xmlns="http://www.w3.org/2000/svg">
<rect x="2.84588" y="2.84588" width="342.138" height="79.6846" rx="36.364" fill="#F5DDC3" stroke="#282202" stroke-width="5.69176"/>
<path d="M228.934 20.8701V68.9338" stroke="#311D02" stroke-width="4.42692" stroke-linecap="round"/>
<path d="M113.835 18.3401V70.5145" stroke="#311D02" stroke-width="4.42692" stroke-linecap="round"/>
<path d="M137.523 28.0608C143.214 3.396 165.033 15.0963 172.305 23.3177C197.286 -1.97873 208.037 24.8982 207.404 30.5903C206.14 55.887 171.041 73.9109 171.041 73.5946C131.831 51.7763 137.522 31.5386 137.523 28.0608Z" fill="#EF4C3B" stroke="#311D02" stroke-width="4.42692" stroke-linecap="round"/>
<circle cx="254.547" cy="20.5526" r="2.21346" fill="#311D02"/>
<circle cx="264.665" cy="20.5528" r="2.21346" fill="#311D02"/>
<circle cx="274.783" cy="20.5528" r="2.21346" fill="#311D02"/>
<circle cx="284.903" cy="20.5528" r="2.21346" fill="#311D02"/>
<circle cx="254.546" cy="32.5692" r="2.21346" fill="#311D02"/>
<circle cx="264.665" cy="32.5692" r="2.21346" fill="#311D02"/>
<circle cx="274.783" cy="32.5692" r="2.21346" fill="#311D02"/>
<circle cx="284.903" cy="32.5692" r="2.21346" fill="#311D02"/>
<circle cx="254.546" cy="56.6014" r="2.21346" fill="#311D02"/>
<circle cx="264.665" cy="56.6014" r="2.21346" fill="#311D02"/>
<circle cx="274.783" cy="56.6014" r="2.21346" fill="#311D02"/>
<circle cx="284.903" cy="56.6014" r="2.21346" fill="#311D02"/>
<circle cx="254.546" cy="45.2176" r="2.21346" fill="#311D02"/>
<circle cx="264.665" cy="45.2176" r="2.21346" fill="#311D02"/>
<circle cx="274.783" cy="45.2176" r="2.21346" fill="#311D02"/>
<circle cx="284.903" cy="45.2176" r="2.21346" fill="#311D02"/>
<circle cx="254.546" cy="68.6165" r="2.21346" fill="#311D02"/>
<circle cx="264.665" cy="68.6165" r="2.21346" fill="#311D02"/>
<circle cx="274.783" cy="68.6165" r="2.21346" fill="#311D02"/>
<circle cx="284.903" cy="68.6165" r="2.21346" fill="#311D02"/>
<circle cx="57.8629" cy="20.5528" r="2.21346" fill="#311D02"/>
<circle cx="67.981" cy="20.5528" r="2.21346" fill="#311D02"/>
<circle cx="78.0992" cy="20.5528" r="2.21346" fill="#311D02"/>
<circle cx="88.2193" cy="20.5528" r="2.21346" fill="#311D02"/>
<circle cx="57.8629" cy="32.5692" r="2.21346" fill="#311D02"/>
<circle cx="67.981" cy="32.5692" r="2.21346" fill="#311D02"/>
<circle cx="78.0992" cy="32.5692" r="2.21346" fill="#311D02"/>
<circle cx="88.2193" cy="32.5692" r="2.21346" fill="#311D02"/>
<circle cx="57.8629" cy="56.6009" r="2.21346" fill="#311D02"/>
<circle cx="67.981" cy="56.6009" r="2.21346" fill="#311D02"/>
<circle cx="78.0992" cy="56.6009" r="2.21346" fill="#311D02"/>
<circle cx="88.2193" cy="56.6009" r="2.21346" fill="#311D02"/>
<circle cx="57.8629" cy="45.2174" r="2.21346" fill="#311D02"/>
<circle cx="67.981" cy="45.2174" r="2.21346" fill="#311D02"/>
<circle cx="78.0992" cy="45.2174" r="2.21346" fill="#311D02"/>
<circle cx="88.2193" cy="45.2174" r="2.21346" fill="#311D02"/>
<circle cx="57.8629" cy="68.6163" r="2.21346" fill="#311D02"/>
<circle cx="67.981" cy="68.6163" r="2.21346" fill="#311D02"/>
<circle cx="78.0992" cy="68.6163" r="2.21346" fill="#311D02"/>
<circle cx="88.2193" cy="68.6163" r="2.21346" fill="#311D02"/>
</svg>
